<svg width="90" height="90" fill="none" xmlns="http://www.w3.org/2000/svg"><path d="m70.293 47.784 5.624 3.134v-6.604l-5.624-3.133v6.603Z" fill="#00FF41"/><path d="M75.917 51.014A.096.096 0 0 1 75.87 51l-5.622-3.133a.097.097 0 0 1-.05-.082v-6.604a.096.096 0 0 1 .144-.083l5.622 3.132c.03.018.05.05.05.083v6.604a.096.096 0 0 1-.096.096h-.001Zm-5.529-3.286 5.431 3.027v-6.384l-5.43-3.027v6.384Z" fill="#111"/><path d="m70.293 41.188 5.656 3.139 5.133-2.876-5.656-3.139-5.133 2.876Z" fill="#fff"/><path d="M75.948 44.422a.08.08 0 0 1-.046-.012l-5.656-3.14a.097.097 0 0 1-.05-.082c0-.035.02-.067.05-.083l5.134-2.877a.095.095 0 0 1 .092 0l5.656 3.139c.03.017.05.049.05.082 0 .034-.02.067-.05.083l-5.133 2.878a.096.096 0 0 1-.047.012Zm-5.46-3.234 5.46 3.03 4.938-2.767-5.46-3.03-4.938 2.767Z" fill="#111"/><path d="m81.082 48.264-5.062 2.7v-6.67l5.062-2.843v6.813Z" fill="#00A629"/><path d="M76.02 51.06a.094.094 0 0 1-.049-.015.095.095 0 0 1-.046-.08v-6.67c0-.035.02-.067.05-.083l5.061-2.844a.102.102 0 0 1 .096 0 .097.097 0 0 1 .048.083v6.813c0 .035-.02.066-.051.084l-5.062 2.7a.093.093 0 0 1-.045.012h-.001Zm.096-6.71v6.455l4.87-2.599v-6.593l-4.87 2.738Z" fill="#111"/><path d="m15.714 65.832 5.623 3.134v-6.604l-5.623-3.132v6.602Z" fill="#00FF41"/><path d="M21.337 69.062a.096.096 0 0 1-.046-.013l-5.623-3.133a.097.097 0 0 1-.049-.082V59.23a.096.096 0 0 1 .143-.083l5.623 3.132c.03.018.05.05.05.083v6.604a.096.096 0 0 1-.096.096h-.002Zm-5.527-3.286 5.432 3.027V62.42l-5.432-3.027v6.384Z" fill="#111"/><path d="m15.714 59.236 5.656 3.14 5.134-2.877-5.656-3.139-5.134 2.876Z" fill="#fff"/><path d="M21.37 62.472a.097.097 0 0 1-.046-.013l-5.656-3.138a.097.097 0 0 1-.049-.083c0-.035.02-.067.05-.083l5.133-2.877a.095.095 0 0 1 .092 0l5.656 3.138c.03.018.05.05.05.083 0 .035-.02.067-.05.083l-5.133 2.877a.096.096 0 0 1-.046.013Zm-5.46-3.234 5.46 3.03 4.938-2.767-5.46-3.03-4.937 2.767Z" fill="#111"/><path d="m26.504 66.312-5.062 2.7v-6.669l5.062-2.844v6.813Z" fill="#111"/><path d="M21.442 69.108a.093.093 0 0 1-.05-.014.095.095 0 0 1-.045-.081v-6.67c0-.035.019-.067.047-.083l5.062-2.844a.101.101 0 0 1 .096 0 .097.097 0 0 1 .048.083v6.813c0 .035-.02.067-.051.084l-5.062 2.7a.092.092 0 0 1-.045.012Zm.096-6.71v6.455l4.87-2.598v-6.593l-4.87 2.737Z" fill="#111"/><path d="m33.537 25.746 5.622 3.133v-6.604l-5.622-3.133v6.604Z" fill="#00FF41"/><path d="M39.16 28.974a.08.08 0 0 1-.047-.012l-5.623-3.133a.097.097 0 0 1-.05-.083v-6.604a.096.096 0 0 1 .144-.082l5.623 3.132c.03.017.05.05.05.083v6.604a.096.096 0 0 1-.096.095h-.002Zm-5.528-3.285 5.431 3.027v-6.384l-5.43-3.027v6.384Z" fill="#111"/><path d="m33.537 19.15 5.656 3.139 5.133-2.877-5.656-3.14-5.133 2.878Z" fill="#fff"/><path d="M39.193 22.385a.096.096 0 0 1-.047-.013l-5.656-3.139a.097.097 0 0 1-.05-.083c0-.035.02-.067.05-.083l5.134-2.877a.095.095 0 0 1 .092 0l5.656 3.139c.03.017.05.05.05.083 0 .035-.02.067-.05.082l-5.133 2.878a.095.095 0 0 1-.046.013Zm-5.46-3.235 5.46 3.03 4.937-2.767-5.46-3.03-4.938 2.767Z" fill="#111"/><path d="m44.326 26.224-5.061 2.7v-6.669l5.061-2.843v6.812Z" fill="#111"/><path d="M39.264 29.02a.094.094 0 0 1-.05-.014.095.095 0 0 1-.045-.081v-6.67c0-.035.019-.066.047-.082l5.062-2.844a.102.102 0 0 1 .096 0 .097.097 0 0 1 .047.082v6.813c0 .035-.019.067-.05.085l-5.062 2.7a.092.092 0 0 1-.045.011Zm.096-6.709v6.454l4.87-2.598v-6.591l-4.87 2.737v-.002Z" fill="#111"/><path d="m42.342 31.864 5.624 3.133v-6.603l-5.624-3.134v6.604Z" fill="#00FF41"/><path d="M47.966 35.092a.097.097 0 0 1-.046-.012l-5.622-3.133a.097.097 0 0 1-.05-.083V25.26a.096.096 0 0 1 .144-.082l5.622 3.132c.03.017.05.05.05.083v6.604a.096.096 0 0 1-.096.095h-.002Zm-5.526-3.285 5.43 3.027V28.45l-5.43-3.027v6.384Z" fill="#111"/><path d="m42.342 25.268 5.656 3.139 5.134-2.877-5.656-3.14-5.134 2.878Z" fill="#fff"/><path d="M47.999 28.503a.095.095 0 0 1-.047-.013l-5.655-3.139a.097.097 0 0 1-.05-.083c0-.035.02-.067.05-.083l5.133-2.877a.098.098 0 0 1 .094 0l5.656 3.139c.03.017.05.049.05.082 0 .036-.02.067-.05.083l-5.133 2.878a.096.096 0 0 1-.047.013H48Zm-5.46-3.235 5.46 3.03 4.937-2.767-5.46-3.03-4.937 2.767Z" fill="#111"/><path d="m53.132 32.342-5.062 2.7v-6.669l5.062-2.844v6.813Z" fill="#111"/><path d="M48.07 35.139a.093.093 0 0 1-.05-.015.095.095 0 0 1-.046-.081v-6.67c0-.035.02-.066.05-.082l5.061-2.844a.101.101 0 0 1 .096 0 .097.097 0 0 1 .048.083v6.812c0 .035-.02.067-.051.085l-5.062 2.7a.092.092 0 0 1-.045.011h-.001Zm.095-6.71v6.454l4.87-2.598v-6.593l-4.87 2.737Z" fill="#111"/><path d="m53.164 66.253 5.622 3.132v-6.602l-5.622-3.134v6.604Z" fill="#00FF41"/><path d="M58.786 69.48a.095.095 0 0 1-.046-.012l-5.623-3.132a.097.097 0 0 1-.049-.083v-6.604c0-.034.018-.065.046-.083a.094.094 0 0 1 .096 0l5.623 3.132c.03.018.049.05.049.083v6.604a.096.096 0 0 1-.096.096Zm-5.528-3.284 5.431 3.027v-6.384l-5.431-3.027v6.384Z" fill="#111"/><path d="m53.164 59.657 5.656 3.139 5.133-2.878-5.656-3.139-5.133 2.878Z" fill="#fff"/><path d="M58.82 62.891a.081.081 0 0 1-.047-.013l-5.656-3.138a.097.097 0 0 1-.049-.083c0-.034.02-.067.05-.083l5.133-2.877a.099.099 0 0 1 .094 0L64 59.835c.03.018.05.05.05.083 0 .035-.02.067-.05.083l-5.134 2.877a.096.096 0 0 1-.046.013h-.001Zm-5.46-3.234 5.46 3.03 4.937-2.767-5.46-3.03-4.937 2.767Z" fill="#111"/><path d="m63.953 66.73-5.062 2.701v-6.669l5.062-2.844v6.813Z" fill="#111"/><path d="M58.892 69.527a.094.094 0 0 1-.05-.014.095.095 0 0 1-.046-.082v-6.669c0-.035.019-.067.05-.083l5.061-2.844a.102.102 0 0 1 .096 0 .097.097 0 0 1 .047.083v6.813c0 .035-.019.067-.05.084l-5.062 2.7a.093.093 0 0 1-.045.012h-.002Zm.095-6.71v6.455l4.87-2.599v-6.592l-4.87 2.737Z" fill="#111"/><path d="m39.16 50.64 5.624 3.132v-6.604l-5.624-3.133v6.604Z" fill="#00FF41"/><path d="M44.783 53.867a.097.097 0 0 1-.046-.013l-5.623-3.132a.097.097 0 0 1-.05-.083v-6.604a.096.096 0 0 1 .144-.083l5.623 3.133c.03.017.05.05.05.082v6.605a.098.098 0 0 1-.047.082.087.087 0 0 1-.048.013h-.003Zm-5.527-3.285 5.431 3.027v-6.384l-5.43-3.027v6.384Z" fill="#111"/><path d="m39.16 44.043 5.656 3.139 5.133-2.878-5.656-3.138-5.133 2.877Z" fill="#fff"/><path d="M44.815 47.277a.096.096 0 0 1-.046-.012l-5.656-3.139a.097.097 0 0 1-.05-.083c0-.035.02-.067.05-.083l5.133-2.877a.095.095 0 0 1 .093 0l5.656 3.139a.094.094 0 0 1 0 .166l-5.134 2.877a.095.095 0 0 1-.046.012Zm-5.46-3.234 5.46 3.03 4.937-2.767-5.46-3.03-4.937 2.767Z" fill="#111"/><path d="m49.948 51.117-5.061 2.7v-6.669l5.061-2.844v6.813Z" fill="#111"/><path d="M44.886 53.913a.093.093 0 0 1-.049-.014.095.095 0 0 1-.046-.081v-6.67c0-.035.019-.067.048-.083l5.061-2.843a.102.102 0 0 1 .096 0 .097.097 0 0 1 .048.082v6.813c0 .035-.02.067-.051.085l-5.062 2.7a.09.09 0 0 1-.045.011Zm.096-6.709v6.454l4.87-2.598v-6.593l-4.87 2.737Z" fill="#111"/><path d="m39.16 43.426 5.624 3.134v-6.604l-5.624-3.132v6.602Z" fill="#00FF41"/><path d="M44.783 46.656a.097.097 0 0 1-.046-.013l-5.623-3.132a.097.097 0 0 1-.05-.083v-6.604a.096.096 0 0 1 .144-.083l5.623 3.133c.03.017.05.049.05.082v6.604a.098.098 0 0 1-.047.083.087.087 0 0 1-.048.013h-.003Zm-5.527-3.285 5.431 3.027v-6.384l-5.43-3.028v6.385Z" fill="#111"/><path d="m39.16 36.832 5.656 3.139 5.133-2.878-5.656-3.138-5.133 2.877Z" fill="#fff"/><path d="M44.815 40.067a.081.081 0 0 1-.046-.013l-5.656-3.139a.097.097 0 0 1-.05-.083c0-.035.02-.067.05-.083l5.133-2.877a.095.095 0 0 1 .093 0l5.656 3.139c.03.017.049.05.049.083 0 .035-.02.066-.05.082l-5.133 2.878a.095.095 0 0 1-.046.013Zm-5.46-3.235 5.46 3.03 4.937-2.767-5.46-3.03-4.937 2.767Z" fill="#111"/><path d="m49.948 43.906-5.061 2.7v-6.669l5.061-2.844v6.813Z" fill="#111"/><path d="M44.886 46.702a.094.094 0 0 1-.049-.014.095.095 0 0 1-.046-.081v-6.67c0-.035.019-.066.048-.082L49.9 37.01a.102.102 0 0 1 .096 0 .097.097 0 0 1 .048.082v6.813c0 .035-.02.067-.051.085l-5.062 2.7a.088.088 0 0 1-.045.011Zm.096-6.709v6.454l4.87-2.598v-6.593l-4.87 2.737Z" fill="#111"/><path d="m45.532 55.685 5.623 3.134v-6.604l-5.623-3.133v6.603Z" fill="#00FF41"/><path d="M51.154 58.914a.096.096 0 0 1-.046-.012l-5.623-3.133a.097.097 0 0 1-.049-.082v-6.604c0-.034.018-.066.046-.083a.094.094 0 0 1 .096 0l5.622 3.132c.03.018.05.05.05.083v6.604a.096.096 0 0 1-.096.095Zm-5.527-3.285 5.432 3.027v-6.384l-5.432-3.027v6.384Z" fill="#111"/><path d="m45.532 49.089 5.657 3.139 5.133-2.876-5.656-3.14-5.133 2.877Z" fill="#fff"/><path d="M51.188 52.323a.081.081 0 0 1-.047-.013l-5.656-3.138a.097.097 0 0 1-.049-.083c0-.035.02-.067.05-.083l5.133-2.877a.095.095 0 0 1 .092 0l5.656 3.139c.03.017.05.049.05.082 0 .035-.02.067-.05.083l-5.133 2.877a.095.095 0 0 1-.046.013Zm-5.46-3.234 5.46 3.03 4.937-2.767-5.46-3.03-4.937 2.767Z" fill="#111"/><path d="m56.322 56.164-5.062 2.7v-6.668l5.062-2.844v6.812Z" fill="#111"/><path d="M51.26 58.96a.094.094 0 0 1-.05-.014.095.095 0 0 1-.046-.081v-6.67c0-.034.02-.066.05-.082l5.061-2.844a.102.102 0 0 1 .096 0 .097.097 0 0 1 .048.083v6.813c0 .035-.02.066-.051.084l-5.062 2.7a.093.093 0 0 1-.045.012h-.001Zm.095-6.709v6.455l4.87-2.599v-6.593l-4.87 2.737Z" fill="#111"/><path d="m45.532 47.053 5.623 3.134v-6.604l-5.623-3.133v6.603Z" fill="#00FF41"/><path d="M51.154 50.282a.082.082 0 0 1-.046-.013l-5.623-3.132a.097.097 0 0 1-.049-.083V40.45c0-.033.018-.065.046-.083a.094.094 0 0 1 .096 0L51.2 43.5c.03.017.05.05.05.083v6.604a.096.096 0 0 1-.096.095Zm-5.527-3.285 5.432 3.027V43.64l-5.432-3.027v6.384Z" fill="#111"/><path d="m45.532 40.457 5.657 3.138 5.133-2.875-5.656-3.14-5.133 2.877Z" fill="#fff"/><path d="M51.188 43.691a.081.081 0 0 1-.047-.013l-5.656-3.139a.097.097 0 0 1-.049-.082c0-.035.02-.067.05-.083l5.133-2.878a.095.095 0 0 1 .092 0l5.656 3.14c.03.017.05.048.05.082 0 .035-.02.067-.05.083l-5.133 2.877a.095.095 0 0 1-.046.013Zm-5.46-3.234 5.46 3.03 4.937-2.767-5.46-3.03-4.937 2.767Z" fill="#111"/><path d="m56.322 47.532-5.062 2.7v-6.669l5.062-2.843v6.812Z" fill="#111"/><path d="M51.26 50.328a.094.094 0 0 1-.05-.014.095.095 0 0 1-.046-.081v-6.67c0-.035.02-.066.05-.082l5.061-2.844a.102.102 0 0 1 .096 0 .097.097 0 0 1 .048.083v6.812c0 .035-.02.067-.051.085l-5.062 2.7a.093.093 0 0 1-.045.011h-.001Zm.095-6.709v6.455l4.87-2.6v-6.592l-4.87 2.737Z" fill="#111"/><path d="m46.424 38.545 5.622 3.134v-6.604l-5.622-3.133v6.603Z" fill="#00FF41"/><path d="M52.047 41.774a.082.082 0 0 1-.046-.013l-5.623-3.132a.097.097 0 0 1-.05-.083v-6.604c0-.033.018-.065.049-.082a.093.093 0 0 1 .095 0l5.623 3.132c.03.017.05.05.05.083v6.604a.096.096 0 0 1-.096.095h-.002ZM46.52 38.49l5.431 3.027v-6.384l-5.431-3.027v6.384Z" fill="#111"/><path d="m46.424 31.95 5.656 3.14 5.133-2.878-5.656-3.139-5.133 2.877Z" fill="#fff"/><path d="M52.08 35.185a.096.096 0 0 1-.046-.013l-5.656-3.139a.097.097 0 0 1-.05-.083c0-.033.02-.067.05-.082l5.134-2.878a.099.099 0 0 1 .094 0l5.656 3.139c.03.017.05.05.05.083 0 .035-.02.067-.05.082l-5.134 2.878a.097.097 0 0 1-.046.013h-.002Zm-5.46-3.235 5.46 3.03 4.938-2.767-5.46-3.03-4.938 2.767Z" fill="#111"/><path d="m57.214 39.025-5.062 2.7v-6.67l5.062-2.843v6.813Z" fill="#111"/><path d="M52.152 41.82a.093.093 0 0 1-.05-.014.095.095 0 0 1-.045-.081v-6.67c0-.035.019-.066.049-.082l5.062-2.844a.101.101 0 0 1 .095 0 .097.097 0 0 1 .048.083v6.812c0 .035-.019.067-.05.085l-5.063 2.7a.092.092 0 0 1-.044.012h-.002Zm.096-6.709v6.455l4.87-2.599v-6.593l-4.87 2.737Z" fill="#111"/><path d="m53.822 57.292 5.622 3.133V53.82l-5.623-3.133v6.604Z" fill="#00FF41"/><path d="M59.444 60.52a.095.095 0 0 1-.046-.013l-5.622-3.132a.097.097 0 0 1-.05-.083v-6.604c0-.033.018-.065.048-.082a.093.093 0 0 1 .096 0l5.622 3.132c.03.017.05.05.05.083v6.604a.096.096 0 0 1-.096.095h-.002Zm-5.527-3.285 5.432 3.027v-6.384l-5.431-3.027v6.384Z" fill="#111"/><path d="m53.822 50.696 5.655 3.14 5.134-2.878-5.656-3.139-5.133 2.877Z" fill="#fff"/><path d="M59.478 53.93a.097.097 0 0 1-.046-.012l-5.656-3.139a.097.097 0 0 1-.05-.083c0-.035.02-.066.05-.082l5.133-2.878a.095.095 0 0 1 .093 0l5.656 3.139c.03.017.049.05.049.083s-.02.067-.05.083l-5.133 2.877a.096.096 0 0 1-.046.013Zm-5.46-3.234 5.46 3.03 4.937-2.767-5.46-3.03-4.937 2.767Z" fill="#111"/><path d="m64.611 57.77-5.062 2.701v-6.67l5.062-2.843v6.813Z" fill="#00A629"/><path d="M59.55 60.566a.093.093 0 0 1-.05-.014.095.095 0 0 1-.046-.081V53.8c0-.035.019-.066.049-.082l5.062-2.844a.102.102 0 0 1 .095 0 .097.097 0 0 1 .048.083v6.812c0 .035-.019.067-.05.085l-5.063 2.7a.089.089 0 0 1-.044.011h-.002Zm.095-6.709v6.455l4.87-2.6V51.12l-4.87 2.737Z" fill="#111"/><path d="m55.179 48.977 5.624 3.133v-6.603l-5.624-3.134v6.604Z" fill="#00FF41"/><path d="M60.803 52.205a.082.082 0 0 1-.046-.012l-5.623-3.134a.097.097 0 0 1-.049-.083v-6.603a.096.096 0 0 1 .143-.082l5.623 3.132c.03.017.05.05.05.083v6.604a.098.098 0 0 1-.047.083.087.087 0 0 1-.048.012h-.003Zm-5.528-3.285 5.43 3.027v-6.384l-5.43-3.027v6.384Z" fill="#111"/><path d="m55.179 42.381 5.656 3.139 5.135-2.877-5.658-3.14-5.133 2.878Z" fill="#fff"/><path d="M60.835 45.615a.097.097 0 0 1-.046-.012l-5.656-3.139a.097.097 0 0 1-.05-.083c0-.035.02-.067.05-.083l5.133-2.877a.095.095 0 0 1 .093 0l5.656 3.139c.03.017.05.049.05.082 0 .034-.02.067-.05.083l-5.134 2.878a.097.097 0 0 1-.046.012Zm-5.46-3.234 5.46 3.03 4.938-2.767-5.46-3.03-4.938 2.767Z" fill="#111"/><path d="m65.97 49.455-5.063 2.701v-6.67l5.063-2.843v6.812Z" fill="#111"/><path d="M60.907 52.252a.094.094 0 0 1-.05-.015.095.095 0 0 1-.045-.081v-6.67c0-.034.019-.066.049-.082l5.062-2.844a.102.102 0 0 1 .095 0 .097.097 0 0 1 .048.083v6.812c0 .035-.02.067-.05.085l-5.063 2.7a.092.092 0 0 1-.044.011h-.002Zm.096-6.71v6.455l4.87-2.599v-6.593l-4.87 2.737Z" fill="#111"/><path d="m59.312 35.2 5.623 3.133v-6.604l-5.623-3.132v6.602Z" fill="#00FF41"/><path d="M64.934 38.428a.082.082 0 0 1-.046-.012l-5.622-3.133a.097.097 0 0 1-.05-.082v-6.604c0-.034.018-.066.048-.083a.093.093 0 0 1 .096 0l5.622 3.132c.03.018.05.05.05.083v6.604a.096.096 0 0 1-.096.096h-.002Zm-5.526-3.285 5.43 3.027v-6.384l-5.43-3.027v6.384Z" fill="#111"/><path d="m59.312 28.603 5.656 3.139 5.133-2.876-5.656-3.139-5.133 2.876Z" fill="#fff"/><path d="M64.968 31.837a.097.097 0 0 1-.046-.012l-5.656-3.14a.097.097 0 0 1-.05-.082c0-.035.02-.067.05-.083l5.133-2.877a.095.095 0 0 1 .093 0l5.655 3.138c.03.018.05.05.05.083 0 .035-.02.067-.05.083l-5.133 2.878a.097.097 0 0 1-.046.012Zm-5.46-3.234 5.46 3.03 4.937-2.767-5.46-3.03-4.937 2.767Z" fill="#111"/><path d="M70.102 35.678 65.04 38.38v-6.67l5.061-2.843v6.813Z" fill="#111"/><path d="M65.04 38.475a.093.093 0 0 1-.05-.015.095.095 0 0 1-.046-.081v-6.67c0-.034.02-.066.048-.082l5.062-2.844a.102.102 0 0 1 .095 0 .097.097 0 0 1 .048.083v6.813c0 .035-.02.066-.051.084l-5.062 2.7a.092.092 0 0 1-.044.012Zm.095-6.71v6.455l4.87-2.599v-6.593l-4.87 2.738Z" fill="#111"/><path d="m28.289 57.394 5.622 3.133v-6.604L28.29 50.79v6.604Z" fill="#00FF41"/><path d="M33.911 60.622a.096.096 0 0 1-.046-.012l-5.623-3.133a.097.097 0 0 1-.05-.083v-6.603c0-.034.018-.066.047-.083a.094.094 0 0 1 .096 0l5.622 3.132c.03.017.05.05.05.083v6.604a.096.096 0 0 1-.096.095Zm-5.527-3.285 5.431 3.027V53.98l-5.43-3.027v6.384Z" fill="#111"/><path d="m28.289 50.798 5.656 3.14 5.133-2.878-5.656-3.139-5.133 2.877Z" fill="#fff"/><path d="M33.944 54.033a.08.08 0 0 1-.046-.013l-5.656-3.139a.097.097 0 0 1-.05-.083c0-.035.02-.066.05-.082l5.134-2.878a.095.095 0 0 1 .092 0l5.656 3.139c.03.018.05.05.05.083 0 .035-.02.067-.05.083l-5.133 2.877a.096.096 0 0 1-.047.013Zm-5.46-3.235 5.46 3.03 4.938-2.767-5.46-3.03-4.938 2.767Z" fill="#111"/><path d="m39.078 57.872-5.062 2.7v-6.668l5.062-2.844v6.812Z" fill="#111"/><path d="M34.016 60.669a.093.093 0 0 1-.05-.015.095.095 0 0 1-.045-.081v-6.67c0-.035.019-.066.049-.082l5.062-2.844a.102.102 0 0 1 .095 0 .097.097 0 0 1 .048.083v6.812c0 .035-.019.067-.05.085l-5.063 2.7a.093.093 0 0 1-.044.012h-.002Zm.096-6.71v6.455l4.87-2.599v-6.593l-4.87 2.737Z" fill="#111"/><path d="m22.355 60.651 5.624 3.132v-6.602l-5.624-3.134v6.604Z" fill="#00FF41"/><path d="M27.98 63.879a.096.096 0 0 1-.047-.013l-5.623-3.132a.097.097 0 0 1-.049-.083v-6.604c0-.033.018-.065.046-.083a.094.094 0 0 1 .096 0l5.622 3.133c.03.017.05.049.05.082v6.604a.096.096 0 0 1-.096.096Zm-5.528-3.285 5.431 3.027v-6.384l-5.43-3.027v6.384Z" fill="#111"/><path d="m22.355 54.055 5.656 3.139 5.134-2.878-5.656-3.138-5.134 2.877Z" fill="#fff"/><path d="M28.011 57.29a.096.096 0 0 1-.046-.013l-5.656-3.14a.097.097 0 0 1-.05-.082c0-.035.02-.067.05-.083l5.133-2.877a.095.095 0 0 1 .093 0l5.656 3.139c.03.017.05.049.05.082 0 .035-.02.067-.05.083l-5.134 2.878a.095.095 0 0 1-.046.012Zm-5.46-3.235 5.46 3.03 4.938-2.767-5.46-3.03-4.938 2.767Z" fill="#111"/><path d="m33.145 61.13-5.062 2.701v-6.67l5.062-2.845v6.814Z" fill="#111"/><path d="M28.083 63.927a.093.093 0 0 1-.05-.015.095.095 0 0 1-.046-.08v-6.67c0-.035.02-.067.05-.083l5.061-2.844a.101.101 0 0 1 .096 0 .097.097 0 0 1 .048.083v6.813c0 .035-.02.066-.051.084l-5.062 2.7a.092.092 0 0 1-.045.012h-.001Zm.096-6.71v6.455l4.87-2.599V54.48l-4.87 2.738Z" fill="#111"/><path d="m34.42 61.05 5.623 3.135V57.58l-5.622-3.133v6.603Z" fill="#00FF41"/><path d="M40.044 64.28a.082.082 0 0 1-.047-.012l-5.622-3.133a.097.097 0 0 1-.05-.082v-6.604c0-.034.018-.066.047-.083a.094.094 0 0 1 .095 0l5.623 3.132c.03.018.05.05.05.083v6.604a.096.096 0 0 1-.096.095Zm-5.527-3.285 5.431 3.027v-6.384l-5.431-3.027v6.384Z" fill="#111"/><path d="m34.42 54.457 5.657 3.138 5.133-2.877-5.656-3.139-5.133 2.878Z" fill="#fff"/><path d="M40.077 57.69a.096.096 0 0 1-.046-.012l-5.656-3.139a.097.097 0 0 1-.05-.082c0-.034.02-.067.05-.083l5.133-2.878a.099.099 0 0 1 .094 0l5.656 3.139c.03.018.05.05.05.083 0 .035-.02.067-.05.083l-5.133 2.877a.095.095 0 0 1-.046.013h-.002Zm-5.46-3.233 5.46 3.03 4.938-2.768-5.46-3.03-4.938 2.768Z" fill="#111"/><path d="m45.21 61.53-5.061 2.7v-6.668l5.061-2.844v6.812Z" fill="#111"/><path d="M40.149 64.327a.093.093 0 0 1-.05-.015.095.095 0 0 1-.046-.08v-6.67c0-.035.02-.067.05-.083l5.061-2.844a.102.102 0 0 1 .096 0 .097.097 0 0 1 .047.083v6.813c0 .035-.019.066-.05.084l-5.062 2.7a.092.092 0 0 1-.045.012h-.001Zm.095-6.71v6.455l4.87-2.599V54.88l-4.87 2.737Z" fill="#111"/><path d="m28.488 64.31 5.624 3.131V60.84l-5.625-3.134v6.604Z" fill="#00FF41"/><path d="M34.112 67.537a.095.095 0 0 1-.047-.011l-5.622-3.132a.097.097 0 0 1-.05-.083v-6.604c0-.034.018-.066.047-.083a.094.094 0 0 1 .095 0l5.623 3.132c.03.018.05.05.05.083v6.604a.096.096 0 0 1-.096.096v-.002Zm-5.529-3.285 5.431 3.027v-6.384l-5.43-3.027v6.384Z" fill="#111"/><path d="m28.488 57.713 5.656 3.139 5.133-2.878-5.656-3.138-5.134 2.877Z" fill="#fff"/><path d="M34.144 60.947a.097.097 0 0 1-.047-.013l-5.656-3.138a.097.097 0 0 1-.05-.083c0-.035.02-.067.05-.083l5.134-2.877a.095.095 0 0 1 .092 0l5.656 3.138c.03.018.05.05.05.083 0 .034-.02.067-.05.083l-5.133 2.877a.097.097 0 0 1-.046.013Zm-5.46-3.234 5.46 3.03 4.937-2.767-5.46-3.03-4.938 2.767Z" fill="#111"/><path d="m39.277 64.787-5.062 2.702v-6.67l5.062-2.845v6.813Z" fill="#111"/><path d="M34.215 67.585a.093.093 0 0 1-.05-.015.095.095 0 0 1-.045-.08v-6.67c0-.035.019-.067.049-.083l5.062-2.844a.101.101 0 0 1 .095 0 .097.097 0 0 1 .048.083v6.813c0 .035-.019.067-.05.084l-5.063 2.7a.092.092 0 0 1-.044.012h-.002Zm.096-6.71v6.455l4.87-2.599v-6.593l-4.87 2.738Z" fill="#111"/><path d="m40.553 64.499 5.623 3.132v-6.604l-5.623-3.132v6.604Z" fill="#00FF41"/><path d="M46.176 67.727a.096.096 0 0 1-.047-.013l-5.622-3.132a.097.097 0 0 1-.05-.083v-6.604a.096.096 0 0 1 .144-.083l5.623 3.132c.03.018.049.05.049.083v6.604a.096.096 0 0 1-.096.096h-.001Zm-5.529-3.285 5.431 3.025v-6.384l-5.43-3.027v6.386Z" fill="#111"/><path d="m40.553 57.903 5.656 3.139 5.134-2.878-5.656-3.139-5.134 2.878Z" fill="#fff"/><path d="M46.21 61.137a.097.097 0 0 1-.047-.013l-5.656-3.138a.097.097 0 0 1-.05-.083c0-.034.02-.067.05-.083l5.133-2.877a.099.099 0 0 1 .094 0l5.656 3.138c.03.018.05.05.05.083 0 .035-.02.067-.05.083l-5.133 2.877a.096.096 0 0 1-.046.013h-.002Zm-5.46-3.234 5.46 3.03 4.937-2.767-5.46-3.03-4.938 2.767Z" fill="#111"/><path d="m51.343 64.977-5.062 2.7v-6.669l5.062-2.844v6.813Z" fill="#111"/><path d="M46.28 67.773a.093.093 0 0 1-.049-.014.095.095 0 0 1-.046-.082v-6.67c0-.034.02-.066.05-.082l5.061-2.844a.101.101 0 0 1 .096 0 .097.097 0 0 1 .048.083v6.813c0 .035-.02.067-.051.084l-5.062 2.7a.093.093 0 0 1-.045.012h-.001Zm.096-6.71v6.455l4.87-2.599v-6.592l-4.87 2.737Z" fill="#111"/><path d="m34.62 67.755 5.623 3.134v-6.604l-5.623-3.132v6.602Z" fill="#00FF41"/><path d="M40.243 70.983a.096.096 0 0 1-.046-.013l-5.623-3.132a.097.097 0 0 1-.05-.083v-6.604a.096.096 0 0 1 .144-.083l5.623 3.133c.03.017.049.05.049.083v6.604a.095.095 0 0 1-.096.095h-.001Zm-5.527-3.285 5.431 3.027v-6.384l-5.431-3.027v6.384Z" fill="#111"/><path d="m34.62 61.16 5.656 3.138 5.134-2.878-5.656-3.138-5.134 2.877Z" fill="#fff"/><path d="M40.276 64.394a.096.096 0 0 1-.046-.013l-5.656-3.139a.097.097 0 0 1-.05-.083c0-.033.02-.067.05-.082l5.134-2.878a.099.099 0 0 1 .093 0l5.657 3.139c.03.017.049.05.049.083 0 .035-.02.066-.05.083l-5.133 2.877a.097.097 0 0 1-.046.013h-.002Zm-5.46-3.235 5.46 3.03 4.938-2.767-5.46-3.03-4.938 2.767Z" fill="#111"/><path d="m45.41 68.235-5.062 2.7v-6.669l5.061-2.845v6.814Z" fill="#111"/><path d="M40.348 71.031a.093.093 0 0 1-.05-.014.095.095 0 0 1-.046-.082v-6.669c0-.035.02-.067.05-.083l5.061-2.844a.102.102 0 0 1 .096 0 .097.097 0 0 1 .048.083v6.813c0 .035-.02.067-.051.084l-5.062 2.7a.093.093 0 0 1-.045.012h-.001Zm.095-6.71v6.455l4.87-2.599v-6.592l-4.87 2.737Z" fill="#111"/><path d="m26.883 72.334 5.624 3.132v-6.602l-5.624-3.134v6.604Z" fill="#00FF41"/><path d="M32.507 75.562a.097.097 0 0 1-.046-.012l-5.622-3.134a.098.098 0 0 1-.05-.085V65.73a.096.096 0 0 1 .143-.083l5.623 3.132c.03.018.05.05.05.083v6.604a.096.096 0 0 1-.096.096l-.002.001Zm-5.527-3.285 5.432 3.027V68.92l-5.432-3.027v6.384Z" fill="#111"/><path d="m26.883 65.738 5.658 3.139L37.674 66l-5.657-3.14-5.134 2.878Z" fill="#fff"/><path d="M32.54 68.973a.095.095 0 0 1-.045-.013l-5.656-3.139a.097.097 0 0 1-.05-.083c0-.035.02-.067.05-.082l5.133-2.878a.095.095 0 0 1 .092 0l5.656 3.139c.03.017.05.05.05.083 0 .035-.02.067-.05.082l-5.133 2.878a.096.096 0 0 1-.046.013Zm-5.46-3.235 5.46 3.03 4.938-2.767-5.46-3.03-4.937 2.767Z" fill="#111"/><path d="m37.674 72.812-5.062 2.703v-6.671L37.674 66v6.812Z" fill="#111"/><path d="M32.612 75.61a.094.094 0 0 1-.049-.014.095.095 0 0 1-.046-.082v-6.669c0-.035.019-.067.048-.083l5.061-2.844a.102.102 0 0 1 .096 0 .097.097 0 0 1 .048.083v6.813c0 .035-.02.068-.051.084l-5.062 2.7a.094.094 0 0 1-.045.012Zm.096-6.71v6.455l4.87-2.599v-6.592l-4.87 2.737Z" fill="#111"/><path d="m46.876 69.442 5.623 3.134v-6.604l-5.623-3.132v6.602Z" fill="#00FF41"/><path d="M52.498 72.671a.096.096 0 0 1-.046-.012l-5.623-3.133a.097.097 0 0 1-.049-.083V62.84a.096.096 0 0 1 .143-.082l5.623 3.132c.03.017.05.05.05.083v6.604a.096.096 0 0 1-.096.095h-.002Zm-5.527-3.285 5.432 3.027V66.03l-5.432-3.027v6.384Z" fill="#111"/><path d="m46.876 62.846 5.656 3.138 5.133-2.877-5.656-3.139-5.133 2.878Z" fill="#fff"/><path d="M52.532 66.08a.097.097 0 0 1-.047-.013L46.83 62.93a.097.097 0 0 1-.049-.083c0-.035.02-.067.05-.085l5.133-2.877a.096.096 0 0 1 .092 0l5.656 3.139c.03.017.05.049.05.082 0 .036-.02.067-.05.085l-5.133 2.877a.096.096 0 0 1-.046.013Zm-5.46-3.234 5.46 3.03 4.937-2.767-5.46-3.03-4.937 2.767Z" fill="#111"/><path d="m57.665 69.921-5.062 2.7v-6.67l5.062-2.844v6.814Z" fill="#111"/><path d="M52.604 72.717a.108.108 0 0 1-.05-.012.096.096 0 0 1-.046-.083v-6.67c0-.034.02-.066.048-.082l5.062-2.844a.097.097 0 0 1 .095 0 .097.097 0 0 1 .048.083v6.812c0 .035-.02.067-.051.085l-5.062 2.7a.093.093 0 0 1-.044.011Zm.095-6.709v6.455l4.87-2.6v-6.592l-4.87 2.737Z" fill="#111"/><path d="m28.289 50.327 5.622 3.134v-6.604l-5.622-3.132v6.602Z" fill="#00FF41"/><path d="M33.911 53.556a.097.097 0 0 1-.046-.012l-5.623-3.133a.097.097 0 0 1-.05-.083v-6.604c0-.033.018-.065.047-.082a.094.094 0 0 1 .096 0l5.622 3.132c.03.017.05.05.05.083v6.604a.096.096 0 0 1-.096.095Zm-5.527-3.285 5.431 3.027v-6.384l-5.43-3.027v6.384Z" fill="#111"/><path d="m28.289 43.73 5.656 3.14 5.133-2.876-5.656-3.139-5.133 2.876Z" fill="#fff"/><path d="M33.944 46.965a.08.08 0 0 1-.046-.013l-5.656-3.138a.097.097 0 0 1-.05-.083c0-.035.02-.067.05-.083l5.134-2.877a.095.095 0 0 1 .092 0l5.656 3.138c.03.018.05.05.05.083 0 .035-.02.067-.05.083l-5.133 2.877a.096.096 0 0 1-.047.013Zm-5.46-3.234 5.46 3.03 4.938-2.767-5.46-3.03-4.938 2.767Z" fill="#111"/><path d="m39.078 50.806-5.062 2.7v-6.669l5.062-2.844v6.813Z" fill="#111"/><path d="M34.016 53.603a.093.093 0 0 1-.05-.015.095.095 0 0 1-.045-.08v-6.67c0-.035.019-.067.049-.083l5.062-2.844a.102.102 0 0 1 .095 0 .097.097 0 0 1 .048.083v6.813c0 .035-.019.066-.05.084l-5.063 2.7a.093.093 0 0 1-.044.012h-.002Zm.096-6.71v6.455l4.87-2.599v-6.593l-4.87 2.738Z" fill="#111"/><path d="m28.289 43.116 5.622 3.132v-6.602l-5.622-3.134v6.604Z" fill="#00FF41"/><path d="M33.911 46.344a.081.081 0 0 1-.046-.013l-5.623-3.132a.097.097 0 0 1-.05-.083v-6.604c0-.034.018-.066.047-.083a.094.094 0 0 1 .096 0l5.622 3.132c.03.018.05.05.05.083v6.604a.096.096 0 0 1-.096.096Zm-5.527-3.286 5.431 3.028V39.7l-5.43-3.027v6.384Z" fill="#111"/><path d="m28.289 36.52 5.656 3.138 5.133-2.877-5.656-3.139-5.133 2.878Z" fill="#fff"/><path d="M33.944 39.754a.095.095 0 0 1-.046-.013l-5.656-3.138a.097.097 0 0 1-.05-.083c0-.035.02-.067.05-.083l5.134-2.877a.095.095 0 0 1 .092 0l5.656 3.138c.03.018.05.05.05.083 0 .035-.02.067-.05.083l-5.133 2.877a.096.096 0 0 1-.047.013Zm-5.46-3.234 5.46 3.03 4.938-2.767-5.46-3.03-4.938 2.767Z" fill="#111"/><path d="m39.078 43.594-5.062 2.702v-6.67l5.062-2.845v6.813Z" fill="#111"/><path d="M34.016 46.392a.094.094 0 0 1-.05-.015.095.095 0 0 1-.045-.081v-6.67c0-.034.019-.066.049-.082l5.062-2.844a.102.102 0 0 1 .095 0 .097.097 0 0 1 .048.083v6.812c0 .035-.019.067-.05.085l-5.063 2.7a.094.094 0 0 1-.044.011h-.002Zm.096-6.71v6.455l4.87-2.599v-6.593l-4.87 2.737Z" fill="#111"/><path d="m20.198 52.505 5.625 3.134v-6.604l-5.625-3.132v6.602Z" fill="#00FF41"/><path d="M25.822 55.734a.08.08 0 0 1-.046-.013l-5.623-3.132a.097.097 0 0 1-.05-.083v-6.604c0-.033.018-.065.047-.083a.094.094 0 0 1 .096 0l5.622 3.133c.03.017.05.05.05.083v6.604a.096.096 0 0 1-.096.095Zm-5.527-3.285 5.431 3.027v-6.384l-5.431-3.027v6.384Z" fill="#111"/><path d="m20.198 45.91 5.657 3.14 5.133-2.878-5.656-3.139-5.134 2.877Z" fill="#fff"/><path d="M25.854 49.145a.096.096 0 0 1-.046-.013l-5.656-3.139a.097.097 0 0 1-.05-.083c0-.035.02-.067.05-.082l5.133-2.878a.095.095 0 0 1 .093 0l5.655 3.139c.03.017.05.05.05.083 0 .035-.02.067-.05.082L25.9 49.132a.096.096 0 0 1-.046.013Zm-5.46-3.235 5.46 3.03 4.937-2.767-5.46-3.03-4.937 2.767Z" fill="#111"/><path d="m30.987 52.984-5.061 2.701v-6.67l5.061-2.843v6.813Z" fill="#111"/><path d="M25.925 55.78a.093.093 0 0 1-.049-.014.095.095 0 0 1-.046-.081v-6.67c0-.034.019-.066.05-.082l5.061-2.844a.101.101 0 0 1 .096 0 .097.097 0 0 1 .047.083v6.812c0 .035-.019.067-.05.085l-5.062 2.7a.092.092 0 0 1-.045.012h-.002Zm.096-6.709v6.455l4.87-2.599v-6.593l-4.87 2.737Z" fill="#111"/><path d="m22.355 46.373 5.624 3.133v-6.603l-5.624-3.133v6.602Z" fill="#00FF41"/><path d="M27.98 49.602a.096.096 0 0 1-.047-.013l-5.623-3.132a.097.097 0 0 1-.049-.083V39.77c0-.034.018-.065.046-.083a.094.094 0 0 1 .096 0l5.622 3.132c.03.018.05.05.05.083v6.604a.096.096 0 0 1-.096.096Zm-5.528-3.285 5.431 3.027V42.96l-5.43-3.028v6.385Z" fill="#111"/><path d="m22.355 39.776 5.656 3.14 5.134-2.877-5.656-3.138-5.134 2.875Z" fill="#fff"/><path d="M28.011 43.01a.081.081 0 0 1-.046-.012l-5.656-3.139a.097.097 0 0 1-.05-.083c0-.035.02-.067.05-.083l5.133-2.877a.095.095 0 0 1 .093 0l5.656 3.139c.03.017.05.05.05.083 0 .035-.02.067-.05.083l-5.134 2.877a.095.095 0 0 1-.046.013Zm-5.46-3.234 5.46 3.03 4.938-2.767-5.46-3.03-4.938 2.767Z" fill="#111"/><path d="m33.145 46.852-5.062 2.7v-6.669l5.062-2.844v6.813Z" fill="#111"/><path d="M28.083 49.648a.094.094 0 0 1-.05-.014.095.095 0 0 1-.046-.081v-6.67c0-.035.02-.067.05-.083l5.061-2.843a.102.102 0 0 1 .096 0 .097.097 0 0 1 .048.082v6.813c0 .035-.02.067-.051.085l-5.062 2.7a.093.093 0 0 1-.045.011h-.001Zm.096-6.709v6.454l4.87-2.598v-6.593l-4.87 2.737Z" fill="#111"/><path d="m16.305 56.958 5.625 3.132v-6.602l-5.625-3.134v6.604Z" fill="#00FF41"/><path d="M21.93 60.186a.096.096 0 0 1-.046-.013l-5.623-3.132a.097.097 0 0 1-.05-.083v-6.604a.096.096 0 0 1 .144-.083l5.623 3.132c.03.018.05.05.05.083v6.604a.098.098 0 0 1-.047.083.087.087 0 0 1-.048.013h-.003ZM16.403 56.9l5.431 3.027v-6.384l-5.43-3.028v6.385Z" fill="#111"/><path d="m16.305 50.362 5.658 3.139 5.133-2.878-5.656-3.139-5.135 2.878Z" fill="#fff"/><path d="M21.963 53.596a.081.081 0 0 1-.046-.012l-5.656-3.14a.097.097 0 0 1-.05-.082c0-.035.02-.067.05-.083l5.134-2.877a.095.095 0 0 1 .092 0l5.656 3.138c.03.018.05.05.05.083 0 .034-.02.067-.05.083l-5.133 2.877a.095.095 0 0 1-.047.013Zm-5.46-3.234 5.46 3.03 4.938-2.767-5.46-3.03-4.938 2.767Z" fill="#111"/><path d="m27.097 57.437-5.062 2.7v-6.67l5.062-2.844v6.814Z" fill="#111"/><path d="M22.035 60.234a.094.094 0 0 1-.05-.015.095.095 0 0 1-.045-.08v-6.67c0-.035.019-.067.05-.083l5.06-2.844a.102.102 0 0 1 .096 0 .097.097 0 0 1 .048.083v6.813c0 .035-.019.067-.05.084l-5.063 2.7a.088.088 0 0 1-.044.012h-.002Zm.096-6.71v6.455L27 57.38v-6.593l-4.87 2.738Z" fill="#111"/><path d="m9.938 28.874 5.624 3.132v-6.602L9.938 22.27v6.604Z" fill="#00FF41"/><path d="M15.561 32.102a.097.097 0 0 1-.046-.013l-5.622-3.132a.097.097 0 0 1-.05-.083V22.27c0-.034.018-.066.046-.083a.093.093 0 0 1 .096 0l5.623 3.132c.03.018.049.05.049.083v6.604a.096.096 0 0 1-.096.096Zm-5.527-3.285 5.432 3.027v-6.385l-5.431-3.027v6.385Z" fill="#111"/><path d="m9.938 22.278 5.656 3.139 5.133-2.878-5.656-3.139-5.133 2.878Z" fill="#fff"/><path d="M15.593 25.512a.082.082 0 0 1-.046-.013l-5.656-3.138a.097.097 0 0 1-.05-.083c0-.035.02-.067.05-.083l5.134-2.878a.095.095 0 0 1 .092 0l5.656 3.14c.03.017.05.049.05.082 0 .035-.02.067-.05.083l-5.133 2.877a.097.097 0 0 1-.047.013Zm-5.46-3.234 5.46 3.03 4.938-2.767-5.46-3.03-4.938 2.767Z" fill="#111"/><path d="m20.727 29.352-5.062 2.7v-6.669l5.062-2.844v6.813Z" fill="#00A629"/><path d="M15.665 32.148a.093.093 0 0 1-.05-.015.095.095 0 0 1-.046-.08v-6.67c0-.035.02-.067.05-.083l5.061-2.844a.101.101 0 0 1 .096 0 .097.097 0 0 1 .048.083v6.813c0 .035-.02.067-.051.084l-5.062 2.7a.092.092 0 0 1-.045.012h-.001Zm.096-6.71v6.455l4.87-2.599v-6.593l-4.87 2.738Z" fill="#111"/><path d="m12.787 47.544 5.624 3.134v-6.604l-5.624-3.133v6.603Z" fill="#00FF41"/><path d="M18.412 50.773a.096.096 0 0 1-.046-.013l-5.623-3.132a.097.097 0 0 1-.05-.083V40.94a.096.096 0 0 1 .144-.083l5.622 3.132c.03.018.05.05.05.083v6.604a.096.096 0 0 1-.096.096h-.001Zm-5.527-3.286 5.431 3.028V44.13l-5.431-3.027v6.384Z" fill="#111"/><path d="m12.787 40.948 5.658 3.138 5.133-2.875-5.656-3.14-5.135 2.877Z" fill="#fff"/><path d="M18.445 44.182a.08.08 0 0 1-.046-.013l-5.656-3.139a.097.097 0 0 1-.05-.083c0-.035.02-.067.05-.083l5.133-2.877a.095.095 0 0 1 .093 0l5.656 3.139c.03.017.05.05.05.083 0 .035-.02.066-.05.082L18.49 44.17a.096.096 0 0 1-.046.013Zm-5.46-3.235 5.46 3.03 4.938-2.767-5.46-3.03-4.938 2.767Z" fill="#111"/><path d="m23.579 48.023-5.062 2.7v-6.669l5.062-2.844v6.813Z" fill="#111"/><path d="M18.517 50.82a.093.093 0 0 1-.05-.015.095.095 0 0 1-.046-.081v-6.67c0-.035.02-.067.048-.083l5.062-2.843a.102.102 0 0 1 .096 0 .097.097 0 0 1 .047.082v6.813c0 .035-.019.067-.05.084l-5.062 2.701a.092.092 0 0 1-.045.011Zm.096-6.71v6.454l4.87-2.598v-6.593l-4.87 2.737Z" fill="#111"/><path d="m28.289 34.164 5.622 3.132v-6.602L28.29 27.56v6.604Z" fill="#00FF41"/><path d="M33.911 37.391a.096.096 0 0 1-.046-.012l-5.623-3.133a.097.097 0 0 1-.05-.083V27.56c0-.034.018-.066.047-.083a.094.094 0 0 1 .096 0l5.622 3.132c.03.017.05.05.05.083v6.604a.095.095 0 0 1-.096.095Zm-5.527-3.285 5.431 3.027V30.75l-5.43-3.027v6.384Z" fill="#111"/><path d="m28.289 27.567 5.656 3.139 5.133-2.878-5.656-3.138-5.133 2.877Z" fill="#fff"/><path d="M33.944 30.802a.08.08 0 0 1-.046-.013l-5.656-3.139a.097.097 0 0 1-.05-.083c0-.035.02-.067.05-.083l5.134-2.877a.095.095 0 0 1 .092 0l5.656 3.139c.03.017.05.05.05.083 0 .035-.02.066-.05.082l-5.133 2.878a.096.096 0 0 1-.047.013Zm-5.46-3.235 5.46 3.03 4.938-2.767-5.46-3.03-4.938 2.767Z" fill="#111"/><path d="m39.078 34.641-5.062 2.703v-6.671l5.062-2.844v6.812Z" fill="#111"/><path d="M34.016 37.44a.094.094 0 0 1-.05-.015.095.095 0 0 1-.045-.081v-6.67c0-.035.019-.067.049-.083l5.062-2.844a.102.102 0 0 1 .095 0 .097.097 0 0 1 .048.083v6.813c0 .035-.019.067-.05.084l-5.063 2.701a.094.094 0 0 1-.044.011h-.002Zm.096-6.71v6.454l4.87-2.598v-6.593l-4.87 2.737Z" fill="#111"/><path d="m.096 39.97 5.623 3.133v-6.602L.096 33.367v6.604Z" fill="#00FF41"/><path d="M5.718 43.199a.096.096 0 0 1-.046-.013L.049 40.054A.097.097 0 0 1 0 39.97v-6.604a.096.096 0 0 1 .143-.083l5.623 3.132c.03.018.05.05.05.083v6.604a.098.098 0 0 1-.047.083.102.102 0 0 1-.048.013h-.003ZM.191 39.915l5.432 3.027v-6.384L.19 33.53v6.386Z" fill="#111"/><path d="m.096 33.375 5.656 3.138 5.134-2.877-5.656-3.139-5.134 2.878Z" fill="#fff"/><path d="M5.752 36.609a.08.08 0 0 1-.047-.013L.05 33.458A.097.097 0 0 1 0 33.375c0-.035.02-.067.05-.083l5.133-2.878a.095.095 0 0 1 .092 0l5.656 3.14c.03.017.05.048.05.082 0 .033-.02.067-.05.083l-5.133 2.877a.096.096 0 0 1-.046.013Zm-5.46-3.234 5.46 3.03 4.937-2.767-5.46-3.03-4.937 2.767Z" fill="#111"/><path d="m10.886 40.449-5.062 2.7V36.48l5.062-2.844v6.813Z" fill="#00A629"/><path d="M5.824 43.245a.094.094 0 0 1-.05-.014.095.095 0 0 1-.046-.082V36.48c0-.035.02-.067.05-.083l5.061-2.844a.102.102 0 0 1 .096 0 .097.097 0 0 1 .047.083v6.813c0 .035-.019.067-.05.084l-5.062 2.7a.089.089 0 0 1-.045.012h-.001Zm.095-6.71v6.455l4.87-2.599V33.8l-4.87 2.737Z" fill="#111"/><path d="m40.752 72.976 5.623 3.134v-6.604l-5.623-3.132v6.602Z" fill="#00FF41"/><path d="M46.056 76.109a.096.096 0 0 1-.046-.013l-5.622-3.132a.097.097 0 0 1-.05-.083v-6.604a.096.096 0 0 1 .143-.083l5.623 3.132c.03.018.05.05.05.085v6.604a.096.096 0 0 1-.096.095l-.002-.001Zm-5.527-3.286 5.432 3.028v-6.385l-5.432-3.027v6.384Z" fill="#111"/><path d="m40.434 66.285 5.656 3.138 5.133-2.877-5.655-3.139-5.134 2.878Z" fill="#fff"/><path d="M46.09 69.52a.096.096 0 0 1-.047-.014l-5.655-3.138a.097.097 0 0 1-.05-.083c0-.034.02-.067.05-.083l5.133-2.877a.098.098 0 0 1 .094 0l5.656 3.138c.03.018.05.05.05.083 0 .035-.02.067-.05.083l-5.133 2.877a.095.095 0 0 1-.047.013h-.001Zm-5.46-3.235 5.46 3.03 4.937-2.767-5.46-3.03-4.937 2.767Z" fill="#111"/><path d="m51.223 73.359-5.062 2.7V69.39l5.062-2.844v6.813Z" fill="#111"/><path d="M46.161 76.155a.093.093 0 0 1-.05-.015.095.095 0 0 1-.045-.08v-6.67c0-.035.019-.067.05-.083l5.06-2.844a.102.102 0 0 1 .096 0 .097.097 0 0 1 .048.083v6.813c0 .035-.019.067-.05.084l-5.063 2.7a.092.092 0 0 1-.044.012h-.002Zm.096-6.71V75.9l4.87-2.599v-6.593l-4.87 2.737Z" fill="#111"/><path d="m34.065 76.395 5.625 3.134v-6.604l-5.625-3.132v6.602Z" fill="#00FF41"/><path d="M39.69 79.625a.096.096 0 0 1-.046-.013l-5.625-3.132a.098.098 0 0 1-.049-.085v-6.602a.096.096 0 0 1 .143-.083l5.623 3.133c.03.017.05.049.05.084v6.602a.096.096 0 0 1-.096.096Zm-5.527-3.285 5.431 3.027v-6.384l-5.431-3.026v6.384-.001Z" fill="#111"/><path d="m34.065 69.801 5.656 3.139 5.134-2.878-5.656-3.138-5.134 2.877Z" fill="#fff"/><path d="M39.722 73.035a.095.095 0 0 1-.047-.012l-5.656-3.14a.097.097 0 0 1-.049-.082c0-.035.02-.067.05-.084l5.133-2.878a.095.095 0 0 1 .092 0l5.656 3.139c.03.017.05.05.05.083 0 .035-.02.067-.05.084l-5.133 2.878a.096.096 0 0 1-.046.012Zm-5.46-3.234 5.46 3.03 4.937-2.767-5.46-3.03-4.938 2.767Z" fill="#111"/><path d="m44.855 76.875-5.062 2.7v-6.669l5.062-2.844v6.813Z" fill="#111"/><path d="M39.793 79.671a.108.108 0 0 1-.049-.013.096.096 0 0 1-.046-.082v-6.67c0-.035.019-.067.048-.083l5.061-2.843a.101.101 0 0 1 .096 0 .097.097 0 0 1 .048.082v6.813c0 .035-.02.067-.051.085l-5.062 2.7a.093.093 0 0 1-.045.011Zm.096-6.709v6.454l4.87-2.598v-6.593l-4.87 2.737Z" fill="#111"/><path d="m32.227 67.822 5.624 3.132v-6.602l-5.624-3.134v6.604Z" fill="#00FF41"/><path d="M37.851 71.05a.094.094 0 0 1-.046-.011l-5.623-3.133a.098.098 0 0 1-.05-.084v-6.604c0-.033.018-.065.049-.083a.09.09 0 0 1 .094 0l5.624 3.133c.03.017.05.049.05.082v6.604a.096.096 0 0 1-.096.096h-.002Zm-5.527-3.285 5.431 3.027v-6.384l-5.431-3.027v6.384Z" fill="#111"/><path d="m32.227 61.226 5.656 3.139 5.133-2.878-5.655-3.138-5.134 2.877Z" fill="#fff"/><path d="M37.883 64.46a.096.096 0 0 1-.047-.012l-5.655-3.14a.097.097 0 0 1-.05-.082c0-.035.02-.067.05-.083l5.133-2.877a.095.095 0 0 1 .092 0l5.656 3.139c.03.017.05.049.05.082 0 .035-.02.067-.05.083l-5.133 2.878a.096.096 0 0 1-.046.012Zm-5.46-3.234 5.46 3.03 4.937-2.767-5.46-3.03-4.937 2.767Z" fill="#111"/><path d="M43.016 68.3 37.955 71v-6.668l5.061-2.844V68.3Z" fill="#00A629"/><path d="M37.955 71.096a.094.094 0 0 1-.05-.014.095.095 0 0 1-.046-.081v-6.67c0-.035.019-.067.05-.082l5.061-2.844a.102.102 0 0 1 .096 0 .097.097 0 0 1 .047.082V68.3c0 .035-.019.067-.05.085L38 71.085a.093.093 0 0 1-.045.011h-.002Zm.095-6.709v6.454l4.87-2.598V61.65l-4.87 2.737Z" fill="#111"/><path d="m51.954 41.297-.741 3.36-2.801-1.465v-3.486l10.327-5.524 2.8 1.466-6.324 3.905-.46 13.598-2.8-1.466V41.297h-.001Z" fill="#FF72FF"/><path d="M54.755 53.242a.087.087 0 0 1-.043-.011l-2.801-1.466a.093.093 0 0 1-.05-.081v-9.547l-.559 2.54a.092.092 0 0 1-.132.062l-2.8-1.466a.093.093 0 0 1-.049-.081v-3.486c0-.034.02-.066.048-.082l10.328-5.523a.092.092 0 0 1 .085 0l2.8 1.465a.094.094 0 0 1 .05.078.096.096 0 0 1-.044.082l-6.282 3.88-.459 13.548c0 .032-.017.06-.046.077a.097.097 0 0 1-.046.012v-.001Zm-2.709-1.613 2.623 1.374.455-13.453a.09.09 0 0 1 .043-.075l6.189-3.821-2.615-1.369-10.235 5.476v3.375l2.645 1.384.715-3.243a.09.09 0 0 1 .18.019v10.333Z" fill="#000"/><path d="m48.414 39.706 2.799 1.465v3.486l-2.77-1.465-.03-3.486Z" fill="#111"/><path d="M51.213 44.748a.082.082 0 0 1-.043-.011l-2.772-1.466a.09.09 0 0 1-.05-.08l-.028-3.486a.093.093 0 0 1 .135-.082l2.8 1.466a.09.09 0 0 1 .049.08v3.487a.092.092 0 0 1-.093.09l.002.002Zm-2.681-1.612 2.589 1.37v-3.277l-2.617-1.37.026 3.277h.002Z" fill="#111"/><path d="M42.106 46.485v2.372l5.088-2.723 2.801 1.466-7.888 4.485-.46 8.078-2.8-1.466V44.825l8.862-4.753 2.775 1.5-8.375 4.914-.003-.001Z" fill="#FF72FF"/><path d="M41.645 60.255a.087.087 0 0 1-.043-.01l-2.8-1.467a.093.093 0 0 1-.05-.08V44.824c0-.034.02-.066.048-.082l8.861-4.752a.091.091 0 0 1 .086 0l2.776 1.5a.092.092 0 0 1 .048.079.095.095 0 0 1-.047.081l-8.33 4.888v2.167l4.954-2.651a.092.092 0 0 1 .086 0l2.801 1.465c.03.016.048.047.05.08a.093.093 0 0 1-.047.081l-7.845 4.462-.459 8.028c0 .032-.019.059-.046.075a.092.092 0 0 1-.044.01h.001Zm-2.708-1.612 2.625 1.375.453-7.936c0-.03.019-.059.046-.075l7.743-4.402-2.608-1.365-5.046 2.698a.097.097 0 0 1-.09-.001.092.092 0 0 1-.045-.078v-2.373c0-.031.017-.062.046-.08l8.234-4.831-2.589-1.398-8.77 4.703v13.763Z" fill="#000"/><path d="m38.857 44.833 2.8 1.465v13.814l-2.82-1.42.02-13.86Z" fill="#111"/><path d="M41.657 60.203a.094.094 0 0 1-.042-.01l-2.818-1.42a.094.094 0 0 1-.051-.08l.017-13.86c0-.032.018-.062.045-.078a.089.089 0 0 1 .09-.004l2.8 1.466c.03.016.05.048.05.081v13.814a.092.092 0 0 1-.091.092v-.001Zm-2.726-1.568 2.635 1.327v-13.61l-2.618-1.37-.017 13.653Z" fill="#111"/><path d="m36.54 46.06 2.8 1.465-2.684 15.31-2.801-1.466-5.09-5.882-.394 11.78-2.8-1.467V51.928l2.685-1.438 2.8 1.466 2.29 4.69v-8.879l3.195-1.709-.002.002Z" fill="#FF72FF"/><path d="M28.37 67.358a.087.087 0 0 1-.043-.011l-2.799-1.466a.093.093 0 0 1-.05-.081V51.928c0-.034.02-.066.049-.082l2.684-1.437a.092.092 0 0 1 .086 0l2.801 1.466a.09.09 0 0 1 .04.041l2.114 4.332v-8.48c0-.034.02-.066.048-.082l3.194-1.71a.092.092 0 0 1 .087 0l2.799 1.467c.035.019.054.057.048.097l-2.685 15.31a.093.093 0 0 1-.05.066.094.094 0 0 1-.082 0l-2.8-1.466a.115.115 0 0 1-.027-.02l-4.935-5.706-.388 11.548c0 .032-.017.06-.046.076a.096.096 0 0 1-.046.013l.002-.003Zm-2.708-1.612 2.623 1.373.39-11.635a.09.09 0 0 1 .06-.083.09.09 0 0 1 .1.027l5.077 5.87 2.673 1.4 2.651-15.12-2.697-1.413-3.104 1.66v8.822a.092.092 0 0 1-.175.04l-2.275-4.662-2.73-1.43-2.593 1.387V65.746Z" fill="#000"/><path d="m25.632 52.072 2.8 1.466V67.17l-2.818-1.42.018-13.678Z" fill="#000"/><path d="M28.433 67.26a.092.092 0 0 1-.042-.009l-2.818-1.42a.094.094 0 0 1-.051-.08l.017-13.677a.092.092 0 0 1 .134-.081l2.801 1.465c.03.017.05.048.05.082v13.63a.092.092 0 0 1-.091.092v-.001Zm-2.727-1.567 2.636 1.327V53.594l-2.618-1.37-.018 13.469Z" fill="#000"/><path d="M39.338 47.525v13.873l-2.684 1.435-5.09-5.882v8.605l-3.195 1.71V53.393l2.684-1.437 5.09 6.155v-8.878l3.194-1.71.001.002ZM44.905 47.95v2.373l5.089-2.723v3.23l-5.089 2.722v4.868l-3.261 1.744V46.292l9.041-4.837v3.405l-5.78 3.092v-.001ZM54.755 42.763l-3.54 1.895v-3.486l10.325-5.524v3.484l-3.524 1.887v10.388l-3.261 1.744V42.763Z" fill="#FFACD5"/><path d="m31.055 51.956-2.684 1.436v13.873l.976-.522v-12.47l2.51-1.343-.803-.972.001-.002Zm5.089-2.723v8.574l.977 1.182v-8.876l2.218-1.187v-1.402l-3.195 1.71ZM41.644 46.29v13.875l.977-.523v-12.47l8.066-4.313v-1.402l-9.043 4.835v-.001ZM51.213 41.173v3.484l.45-.24.526-.282v-2.082l9.351-5.003v-1.402l-10.327 5.525Z" fill="#FFDDF3"/><path d="M51.213 42.575v2.082l.45-.24v-2.083l-.45.241Z" fill="#FFDDF3"/><path d="M28.37 67.358a.092.092 0 0 1-.09-.09V53.394c0-.034.019-.066.048-.082l2.684-1.435a.09.09 0 0 1 .113.022l4.927 5.959v-8.623c0-.033.019-.065.047-.08l3.195-1.71a.092.092 0 0 1 .135.08v13.871c0 .034-.019.066-.047.082l-2.685 1.435a.092.092 0 0 1-.113-.02l-4.928-5.698v8.36c0 .033-.02.065-.048.081l-3.194 1.71a.082.082 0 0 1-.043.01Zm.093-13.91v13.666l3.013-1.61v-8.552c0-.038.024-.071.059-.086a.091.091 0 0 1 .1.026l5.041 5.826 2.572-1.375V47.678l-3.013 1.61v8.823a.091.091 0 0 1-.06.086.094.094 0 0 1-.103-.027l-5.04-6.098-2.57 1.375.001.002ZM41.645 60.255a.108.108 0 0 1-.048-.013.092.092 0 0 1-.044-.078V46.292c0-.034.019-.065.047-.081l9.042-4.837a.092.092 0 0 1 .135.08v3.404c0 .034-.019.065-.047.081l-5.733 3.067v2.164l4.954-2.651a.097.097 0 0 1 .09.001.092.092 0 0 1 .045.078v3.23c0 .033-.019.065-.048.081l-5.04 2.697v4.812c0 .034-.02.065-.048.081l-3.262 1.745a.088.088 0 0 1-.043.011Zm.093-13.909v13.665l3.078-1.647v-4.812c0-.033.019-.065.047-.08l5.041-2.698v-3.021l-4.953 2.651a.097.097 0 0 1-.09-.002.092.092 0 0 1-.045-.078v-2.372c0-.033.019-.065.047-.081l5.733-3.067v-3.198l-8.858 4.74ZM54.755 53.242a.09.09 0 0 1-.091-.091V42.916l-3.407 1.823a.092.092 0 0 1-.09-.002.092.092 0 0 1-.045-.078v-3.486c0-.034.02-.065.048-.081l10.326-5.526a.097.097 0 0 1 .09.002.092.092 0 0 1 .045.078v3.484c0 .034-.019.066-.048.082l-3.476 1.859v10.332c0 .034-.02.066-.048.081l-3.261 1.745a.083.083 0 0 1-.043.011v.002Zm0-10.571c.016 0 .033.004.047.012a.092.092 0 0 1 .045.078v10.235l3.078-1.645V41.018c0-.033.02-.065.048-.08l3.477-1.86V35.8l-10.143 5.426v3.277l3.406-1.822a.083.083 0 0 1 .043-.011h-.001Z" fill="#111"/><path d="m33.346 47.721-.085.163 2.8 1.466.085-.163-2.8-1.466Z" fill="#111"/><path d="M69.486 26.22a3.384 3.384 0 0 1-.128.183l-.044.057-.088.106c-.03.034-.06.066-.09.097-.236.238-.485.388-.748.447a1.04 1.04 0 0 1-.237.027 1.14 1.14 0 0 1-.51-.113 10.563 10.563 0 0 0 .282-.717l.062-.177.231.008.183.007.387.02a17.06 17.06 0 0 1 .7.055ZM67.426 26.116l.278.006c-.045.127-.09.25-.134.366l-.088.226a6.397 6.397 0 0 1-.07.168l-.063.145v.002l-.003.003c-.116.259-.233.485-.354.68a4.083 4.083 0 0 1-.147.221c-.025.035-.05.07-.075.102-.263.337-.55.56-.888.707a1.07 1.07 0 0 1-.24.075.67.67 0 0 1-.269-.005.6.6 0 0 1-.284-.158c.414-.902.459-1.119.446-1.21a.721.721 0 0 0-.093-.264.912.912 0 0 0-.155-.196l.049-.134.04-.106c.016-.046.033-.09.049-.132v-.001l.046-.122.14-.367.232-.007c.23-.005.457-.008.675-.008h.16l.456.004h.001l.29.004h.001Z" fill="#FFDBC4"/><path d="M65.358 27.467c.006.04-.025.22-.394 1.033a.647.647 0 0 1-.097-.232v-.002c0-.005 0-.013.003-.026.002-.003.002-.007.003-.01a.793.793 0 0 1 .024-.099l.006-.024a.408.408 0 0 1 .008-.028l.008-.028a6.899 6.899 0 0 1 .111-.346l.076-.221c.01-.025.019-.052.028-.08l.084-.232a.584.584 0 0 1 .14.295ZM59.636 24.58c.098-.119.663-.279 1.485-.447a.616.616 0 0 1-.404.364c-.505.143-.859.23-1.02.247a.142.142 0 0 1-.13-.044.431.431 0 0 1 .07-.12ZM86.264 20.245c.613.247 1.147 1.116 1.391 2.267.38 1.779-.03 3.682-.912 4.241a.87.87 0 0 1-.828.082c-.613-.248-1.147-1.116-1.393-2.267-.378-1.78.03-3.683.913-4.242a.868.868 0 0 1 .829-.08Z" fill="#FFDBC4"/><path d="M59.716 24.922c.218-.025.691-.152 1.05-.255a.791.791 0 0 0 .547-.546l.008-.028a61.12 61.12 0 0 1 4.439-.669c1.746-.201 4.391-.55 4.418-.553a.134.134 0 0 0-.036-.265c-.018.002-1.246.164-2.578.33.545-.841 1.069-1.09 1.72-1.202a2.38 2.38 0 0 1 .083-.015c.06-.008.132-.02.207-.033l.002.001c.538.133 1.12.221 1.654.19.177-.011.35-.035.514-.075.354-.087.699-.164 1.03-.22a6.662 6.662 0 0 1 .554-.07c.946-.075 1.764.114 2.403.894.92 1.123 2.134-1.163 8.97-1.483-.478.9-.64 2.33-.352 3.685.257 1.205.83 2.12 1.495 2.389.18.072.362.096.541.072a9.693 9.693 0 0 1-1.04.244l-.26.052-.625.126c-.207.042-.392.08-.561.113-1.505.301-1.662.332-3.243 1.505-.583.433-1.133.778-1.63 1.024l-.017.008-.009.004a6.601 6.601 0 0 1-.13.063c-.057.027-.113.051-.166.075l-.142.059h-.002l-.105.042-.03.01-.001.001c-.081.03-.154.056-.223.079l-.152.046c-.038.01-.076.021-.117.03l-.013.004a3.326 3.326 0 0 1-.391.08 4.234 4.234 0 0 1-.35.037c-.072.004-.145.01-.221.018l-.027.003-.046.005c-.047.005-.096.01-.146.018l-.008.001a4.358 4.358 0 0 0-.143.022l-.114.02a4.856 4.856 0 0 0-.285.06l-.187.045-.005.001a5.52 5.52 0 0 0-.18.05l-.194.057-.104.033-.117.039a9.617 9.617 0 0 0-.328.115c-.067.024-.137.05-.209.078l-.034.013-.074.03-.181.072-.1.041-.096.041a5.14 5.14 0 0 0-.155.065l-.062.027a25.098 25.098 0 0 0-.607.275c-1.309.615-2.148 1.2-2.76 1.628-.276.192-.493.344-.686.452l-.147.081a2.43 2.43 0 0 1-.477.215l-.02.006-.03.008a.914.914 0 0 1-.219.03c-.01 0-.022 0-.04-.002a.223.223 0 0 1-.03-.003l-.014-.002c-.006 0-.011-.002-.022-.004a.26.26 0 0 1-.03-.007l-.051-.016-.023-.01a.037.037 0 0 0-.011-.006l-.016-.01a.446.446 0 0 1-.089-.06c-.013-.01-.023-.02-.034-.03a.924.924 0 0 1-.106-.129c-.01-.019-.023-.04-.036-.061a1.032 1.032 0 0 1-.048-.09l-.036-.08-.035-.092a3.004 3.004 0 0 1-.076-.246 1.203 1.203 0 0 1-.021-.094l-.01-.053-.002-.013-.001-.008-.002-.017a1.203 1.203 0 0 1-.008-.087l-.001-.01a.24.24 0 0 1-.003-.037v-.064c-.002-.008 0-.02 0-.036a1.311 1.311 0 0 1 .027-.244l.002-.01.004-.023a1.38 1.38 0 0 1 .076-.254l.007-.018a1.569 1.569 0 0 1 .08-.176c.011-.027.026-.053.04-.079.003-.003.004-.006.006-.01.046-.08.1-.165.16-.248l.008-.012a3.818 3.818 0 0 1 .354-.417c.06-.063.125-.126.192-.188l.097-.088a10.188 10.188 0 0 1 .282-.236c.267-.21.532-.392.756-.54.944-.625 1.815-1.43 2.081-1.77.268-.344.398-.981.297-1.189-.11-.222-.358-.556-.923-.882-.486-.281-1.222-.474-2.251-.59a.284.284 0 0 0-.032-.004h-.003c-.825-.09-1.847-.133-3.211-.137a30.731 30.731 0 0 0-1.011.019 81.53 81.53 0 0 0-2.136.106c-1.266.076-2.359.14-2.877.059-.439-.07-.772-.32-.913-.69a.983.983 0 0 1-.061-.445c.057.03.122.042.194.035Z" fill="#FFDBC4"/><path d="M86.005 19.983a1.712 1.712 0 0 1 .08.009l-.08-.009ZM86 19.983h.005H86ZM85.947 19.978c.017 0 .033.003.05.005l-.05-.005ZM85.947 19.978Z" fill="#1A1C2C"/><path d="M85.719 20.032ZM85.72 20.032a.892.892 0 0 0-.161.066l-.066-.001c.1-.045.203-.075.307-.087a.44.44 0 0 0-.08.022ZM85.558 20.098a.893.893 0 0 1-.085.05c.028-.019.057-.035.085-.05ZM85.373 20.219ZM85.206 20.372Z" fill="#3D3D3D"/><path d="M84.702 20.923c.174-.327.39-.585.64-.743.05-.032.1-.06.15-.083h.067c-.028.016-.058.032-.086.05-.032.021-.063.042-.093.066l-.007.005a1.486 1.486 0 0 0-.167.153 1.746 1.746 0 0 0-.16.195 2.448 2.448 0 0 0-.207.35l-.137.007ZM85.047 20.566Z" fill="#3D3D3D"/><path d="M84.575 19.988ZM83.924 20.023c.19-.012.378-.021.561-.03l-.56.03ZM83.347 20.057l.192-.012-.192.012ZM82.965 20.08l.382-.023-.382.022Z" fill="#1A1C2C"/><path d="m86.882 26.83.005-.003c.186-.145.35-.343.487-.581l.03-.052c.49-.893.64-2.32.335-3.704-.14-.632-.364-1.187-.647-1.606-.295-.439-.644-.707-.982-.755a4.686 4.686 0 0 0-.55-.03.963.963 0 0 1 .24-.09h.008c.173-.02.35.003.525.074.666.268 1.24 1.184 1.496 2.39.393 1.845-.052 3.831-.993 4.428l-.04.024c-.133.078-.27.125-.408.144.198-.066.357-.14.494-.238Z" fill="#3D3D3D"/><path d="M82.682 20.095Z" fill="#1A1C2C"/><mask id="a" fill="#fff"><path d="M86.386 27.069c-.18.024-.36 0-.541-.073-.666-.268-1.238-1.183-1.495-2.389-.288-1.353-.126-2.784.352-3.684l.137-.007a2.45 2.45 0 0 1 .208-.35 1.884 1.884 0 0 1 .244-.278l.082-.07c.002 0 .005-.003.007-.005.03-.023.062-.044.093-.064.028-.019.058-.035.086-.05.217.001.405.01.551.03.338.048.687.316.982.755.283.42.507.974.646 1.606.306 1.384.156 2.811-.334 3.704l-.03.052a1.983 1.983 0 0 1-.487.58l-.005.005a1.798 1.798 0 0 1-.494.238h-.002Zm-.471-.234a.87.87 0 0 0 .828-.081c.882-.56 1.292-2.463.912-4.242-.244-1.151-.778-2.02-1.391-2.267a.868.868 0 0 0-.829.08c-.882.56-1.291 2.463-.913 4.243.246 1.15.78 2.02 1.393 2.267Z"/></mask><path d="M86.386 27.069c-.18.024-.36 0-.541-.073-.666-.268-1.238-1.183-1.495-2.389-.288-1.353-.126-2.784.352-3.684l.137-.007a2.45 2.45 0 0 1 .208-.35 1.884 1.884 0 0 1 .244-.278l.082-.07c.002 0 .005-.003.007-.005.03-.023.062-.044.093-.064.028-.019.058-.035.086-.05.217.001.405.01.551.03.338.048.687.316.982.755.283.42.507.974.646 1.606.306 1.384.156 2.811-.334 3.704l-.03.052a1.983 1.983 0 0 1-.487.58l-.005.005a1.798 1.798 0 0 1-.494.238h-.002Zm-.471-.234a.87.87 0 0 0 .828-.081c.882-.56 1.292-2.463.912-4.242-.244-1.151-.778-2.02-1.391-2.267a.868.868 0 0 0-.829.08c-.882.56-1.291 2.463-.913 4.243.246 1.15.78 2.02 1.393 2.267Z" fill="#3D3D3D"/><path d="m86.386 27.069.256-.966-.191-.051-.196.026.13.991Zm-.541-.073.374-.927-.374.927Zm-1.495-2.389.978-.208-.978.208Zm.352-3.684-.053-.999-.565.03-.265.5.883.469Zm.137-.007.045.999.593-.027.26-.532-.898-.44Zm.208-.35.813.582.001-.002-.814-.58Zm.159-.194-.714-.7-.009.008-.008.009.73.683Zm.085-.084-.66-.751-.014.012-.013.012.687.727Zm.082-.07-.504-.863-.066.038-.06.049.63.776Zm.007-.005.504.864.05-.029.046-.035-.6-.8Zm.093-.064.544.839.005-.003-.549-.836Zm.086-.05.008-1-.26-.002-.227.124.48.878Zm.551.03.141-.99-.01-.002-.13.992Zm.982.755-.83.558.001.002.829-.56Zm.646 1.606-.976.216.976-.216Zm-.334 3.704.858.513.01-.016.008-.016-.876-.481Zm-.03.052.866.5.004-.006-.87-.494Zm-.487.58.503.865.058-.034.052-.04-.613-.79Zm-.005.005-.504-.864-.04.024-.04.027.584.813Zm-.494.238-.316-.949-.098.033-.09.052.504.864Zm-.473-.234-.375.927.002.001.373-.928Zm.828-.081.532.846.003-.002-.535-.844Zm.912-4.242-.978.207v.002l.978-.21Zm-1.391-2.267-.375.928.375-.928Zm-.829.08-.535-.844.535.845Zm-.913 4.243-.978.208.978-.208Zm1.733 1.51h-.007a.12.12 0 0 1-.029-.009l-.748 1.855a2.06 2.06 0 0 0 1.045.137l-.261-1.983Zm-.036-.01c-.07-.027-.234-.137-.427-.445-.186-.297-.355-.713-.464-1.224l-1.956.416c.148.695.393 1.34.724 1.869.324.517.778 1 1.375 1.24l.748-1.855Zm-.891-1.67c-.252-1.18-.086-2.36.257-3.007l-1.766-.937c-.613 1.154-.772 2.835-.447 4.362l1.956-.417Zm-.573-2.477.13-.006-.09-1.998a14.51 14.51 0 0 0-.147.007l.107 1.997Zm.982-.565c.04-.083.082-.152.123-.208l-1.626-1.165c-.11.153-.207.319-.293.494l1.796.879Zm.124-.21a.885.885 0 0 1 .075-.091l-1.46-1.366a2.895 2.895 0 0 0-.243.296l1.628 1.161Zm.058-.074.059-.057-1.374-1.454a4.07 4.07 0 0 0-.112.11l1.427 1.401Zm.032-.033.051-.043-1.259-1.554c-.04.032-.077.064-.112.095l1.32 1.502Zm-.075.043a1.007 1.007 0 0 0 .095-.062l.02-.015a.208.208 0 0 0 .005-.004l.001-.001-.005.004a1.168 1.168 0 0 1-.109.073l-1.006-1.728a1.057 1.057 0 0 0-.115.078l-.005.004-.002.001.005-.004a2.044 2.044 0 0 1 .052-.038l.057-.035 1.007 1.727Zm.104-.069a.609.609 0 0 1 .037-.025L84.93 19.31a2.653 2.653 0 0 0-.15.103l1.201 1.6Zm.041-.028-.007.005a.277.277 0 0 1 .008-.005l.016-.009-.958-1.755c-.024.013-.088.047-.155.091l1.097 1.673Zm-.47.114c.2.001.341.01.428.021l.262-1.983a5.649 5.649 0 0 0-.674-.038l-.015 2Zm.418.02c-.04-.006-.026-.016.038.034.064.048.154.14.255.289l1.66-1.116c-.367-.546-.93-1.082-1.67-1.187l-.283 1.98Zm.294.325c.197.29.38.72.499 1.262l1.953-.432c-.16-.722-.424-1.402-.795-1.95l-1.657 1.12Zm.499 1.262c.27 1.218.108 2.383-.235 3.006l1.753.963c.638-1.161.777-2.851.435-4.4l-1.953.431Zm-.217 2.975a1.83 1.83 0 0 0-.032.057l-.005.008-.002.005c-.002.002-.002.002-.001 0l1.739.989a1.52 1.52 0 0 0 .018-.033l.003-.005c.003-.007.001-.003-.003.005l-1.717-1.026Zm-.036.064a1.001 1.001 0 0 1-.236.292l1.227 1.58c.31-.241.552-.546.74-.87l-1.731-1.002Zm-.126.218a1.012 1.012 0 0 0-.164.12l-.01.009-.005.004.001-.001a1.61 1.61 0 0 1 .055-.047.943.943 0 0 1 .118-.081l1.007 1.728a.982.982 0 0 0 .16-.116l.02-.017.001-.002-.004.004-.01.009a.958.958 0 0 1-.162.118l-1.007-1.728Zm-.084.055a.837.837 0 0 1-.227.102l.631 1.898c.258-.086.517-.2.762-.375L86.3 26.018Zm-.415.187a.997.997 0 0 1 .754-.103h.003l-.255.967-.256.967h.003l.004.002.008.002a.796.796 0 0 0 .06.012.997.997 0 0 0 .686-.12l-1.007-1.727Zm-.341 1.558a1.869 1.869 0 0 0 1.732-.163l-1.065-1.693c-.011.007-.013.007-.007.005a.17.17 0 0 1 .076-.006c.01.001.014.003.008 0l-.745 1.857Zm1.735-.165c.78-.495 1.186-1.436 1.372-2.298a7.309 7.309 0 0 0-.017-2.997l-1.956.418c.162.756.152 1.533.018 2.159-.146.674-.386.965-.488 1.03l1.071 1.688Zm1.355-5.294c-.14-.664-.371-1.28-.683-1.788-.303-.493-.734-.965-1.313-1.198l-.747 1.855c.035.014.177.1.356.39.17.277.328.67.431 1.156l1.956-.415Zm-1.995-2.986a1.867 1.867 0 0 0-1.738.163l1.07 1.69c.01-.006.011-.006.005-.004a.17.17 0 0 1-.077.007c-.011-.002-.014-.004-.009-.001l.749-1.855Zm-1.738.163c-.781.495-1.187 1.437-1.372 2.298a7.317 7.317 0 0 0 .016 2.997l1.957-.417a5.321 5.321 0 0 1-.018-2.16c.146-.674.386-.964.488-1.029L84.9 19.481Zm-1.356 5.295c.142.664.373 1.28.685 1.788.302.492.733.965 1.31 1.198l.75-1.854c-.035-.014-.177-.1-.356-.391-.17-.277-.329-.67-.433-1.158l-1.956.417Z" fill="#000" mask="url(#a)"/><path d="m84.784 27.697-.132.027-.068.014.2-.04ZM84.489 27.757l.025-.004-.025.005-.143.03.143-.03ZM84.209 27.814l.136-.026a26.808 26.808 0 0 1-.137.027Z" fill="#1A1C2C"/><path d="M79.676 30.084a6.605 6.605 0 0 1 0 0ZM73.119 19.738c.417-.35.845-.613 1.856-.282.856.28 4.784.704 5.915.8.56.048 1.518-.01 2.533-.07.74-.046 1.498-.09 2.07-.09-.052.024-.102.052-.151.084-.25.158-.466.416-.64.742-6.837.32-8.051 2.607-8.97 1.484-.639-.78-1.457-.97-2.404-.893a6.314 6.314 0 0 0-.554.07c-.33.054-.675.131-1.03.218-.163.04-.336.065-.513.075-.534.032-1.116-.056-1.654-.19.281-.045.637-.108.922-.158a.14.14 0 0 0 .055-.01c1.273-.225 1.3-.24 1.32-.252a.134.134 0 0 0-.109-.243c-.058.014-.465.09-.98.182.424-.619.854-.975 1.255-1.033.595-.088.931-.31 1.079-.434ZM71.744 21.801Z" fill="#FFD1B4"/><path d="M73.034 19.636c.471-.396.952-.643 1.982-.307.82.268 4.65.689 5.885.794.412.035 1.065.011 1.781-.028l.282-.016.383-.022.193-.012.384-.023a132.345 132.345 0 0 1 .83-.042c.47-.018.887-.024 1.193-.002l.053.005h.005l.08.009a.803.803 0 0 0-.164 0 .73.73 0 0 0-.121.018 1.046 1.046 0 0 0-.308.087c-.57-.001-1.328.043-2.07.088-1.014.061-1.973.119-2.532.07-1.131-.095-5.06-.519-5.915-.799-1.011-.33-1.439-.068-1.856.282-.148.124-.484.346-1.08.434-.4.058-.83.414-1.253 1.033.514-.092.921-.168.98-.182a.134.134 0 0 1 .11.243c-.021.012-.05.027-1.322.253a.137.137 0 0 1-.055.01c-.285.05-.641.112-.922.158h-.002a14.126 14.126 0 0 1-.314-.085l.085-.014a111.221 111.221 0 0 0 1.161-.197 5.31 5.31 0 0 1 .408-.584 2.946 2.946 0 0 1 .405-.42l.067-.053c.217-.167.429-.265.634-.294.48-.071.819-.24 1.013-.405ZM69.26 21.603a11.22 11.22 0 0 0-.002 0l.002-.001ZM72.707 27.704a.375.375 0 0 1 0 0Z" fill="#1A1C2C"/><path d="M72.364 27.146ZM71.993 26.866Z" fill="#FFD1B4"/><path d="M72.67 27.94c-.005.02-.01.042-.017.064l.017-.065ZM72.653 28.005h.001v.001c0-.002 0 0 0 0ZM72.652 28.006c-.005.022-.012.043-.019.066l.02-.066Z" fill="#1A1C2C"/><path d="M72.653 28.006a1.441 1.441 0 0 1-.02.066l.02-.066ZM72.633 28.073c-.006.023-.014.046-.022.07a3.25 3.25 0 0 0 .022-.07Z" fill="#1A1C2C"/><path d="M72.633 28.073a3.25 3.25 0 0 1-.022.07h-.001l.023-.07Z" fill="#1A1C2C"/><path d="M71.885 26.8Z" fill="#FFD1B4"/><path d="M72.61 28.143a1.482 1.482 0 0 1-.059.14l.03-.07.029-.07ZM72.55 28.283a.815.815 0 0 1-.034.067l.034-.067ZM72.515 28.35a1.014 1.014 0 0 0 0 0ZM69.358 26.403a3.695 3.695 0 0 1 0 0ZM71.042 29.738ZM69.226 26.566c.03-.035.06-.07.088-.106a2.83 2.83 0 0 1-.088.106ZM71.042 29.738l-.122.093a6.893 6.893 0 0 1 .122-.093ZM70.795 29.922l-.125.09c.038-.027.076-.054.114-.083l.011-.007ZM70.287 30.272l.127-.086a9.478 9.478 0 0 0 0 .001 9.526 9.526 0 0 0-.127.086l-.07.046.07-.047ZM70.218 30.32c-.07.047-.143.098-.217.151l-.162.118a8.76 8.76 0 0 1 .379-.27ZM67.57 26.488ZM70.001 30.471ZM67.851 27.1ZM67.481 26.714c.03-.073.059-.149.089-.226l-.089.226ZM67.7 27.05ZM67.348 27.03l-.001.002.001-.003ZM66.846 27.934ZM66.77 28.036a2.23 2.23 0 0 0 0 0ZM65.287 26.984l-.015.04.015-.04Z" fill="#1A1C2C"/><path d="M64.964 28.5c.37-.813.4-.993.394-1.033a.584.584 0 0 0-.14-.295l.054-.148.015-.04a.907.907 0 0 1 .155.196c.05.085.08.173.093.264.013.092-.032.309-.446 1.21a.768.768 0 0 1-.126-.154Z" fill="#3D3D3D"/><path d="M79.079 30.256c.475-.235 1.02-.568 1.656-1.04 1.734-1.286 1.718-1.176 3.753-1.594.334-.07.627-.126.885-.178l-.021.14-.209.042-.023.005-.336.067-.132.026.132-.027c-.065.013-.132.026-.2.041l-.07.015-.025.004-.143.03-.137.027h-.001l-.13.027-.125.025c-1.043.209-1.413.283-2.075.704-.278.178-.608.417-1.063.755a13.737 13.737 0 0 1-.533.376l-.205.136-.203.128-.198.12-.581.312a7.037 7.037 0 0 1-.285.132h-.001a3.41 3.41 0 0 1-.12.05l-.01.005a3.63 3.63 0 0 1-.127.05l-.032.011c-.07.028-.146.054-.235.082l-.062.02a3.148 3.148 0 0 1-.097.03l-.002.002h-.007c-.044.013-.082.024-.12.032l-.015.004-.095.023h-.003c-.07.017-.142.03-.211.044a2.317 2.317 0 0 0-.072.012l-.029.005h-.004c-.112.017-.23.03-.371.04a7.759 7.759 0 0 0-.41.04c-.003 0-.006.002-.01.001a5.805 5.805 0 0 0-.483.089l-.046.01a7.373 7.373 0 0 0-.35.09l-.002.002a5.205 5.205 0 0 0-.192.057l-.102.03a10.748 10.748 0 0 0-.746.269l-.372.153-.152.064-.063.028c-.047.02-.095.04-.142.062-.147.065-.298.136-.457.21-.658.309-1.196.61-1.646.888-.43.266-.779.51-1.075.716-.281.197-.504.35-.707.465l-.143.08-.014.007a3.356 3.356 0 0 1-.523.233l-.02.006a.327.327 0 0 1-.04.01.909.909 0 0 1-.5.008s-.01-.003-.011-.002l-.031-.011-.02-.007-.01-.003-.043-.02a.25.25 0 0 1-.04-.021.765.765 0 0 1-.126-.086c-.016-.013-.033-.03-.05-.045-.05-.05-.1-.109-.143-.175-.015-.025-.03-.047-.044-.072a1.829 1.829 0 0 1-.14-.308 2.849 2.849 0 0 1-.108-.377.684.684 0 0 1-.017-.108 1.474 1.474 0 0 1-.011-.107l-.002-.03-.002-.029a.41.41 0 0 1 0-.057.366.366 0 0 1 0-.05 1.038 1.038 0 0 1 .016-.202c.001-.001 0-.002.002-.002v-.004l.013-.08.001-.005v-.002l.005-.022a1.686 1.686 0 0 1 .091-.308l.007-.018c.012-.033.026-.067.042-.099a1.357 1.357 0 0 1 .1-.199 2.764 2.764 0 0 1 .27-.402 4.426 4.426 0 0 1 .493-.527c.026-.025.054-.05.081-.073 0 0 .27-.23.349-.291a12.8 12.8 0 0 1 .74-.527c.087-.057.172-.116.256-.175l.126-.09.012-.01.112-.082.123-.093c.12-.092.238-.186.35-.278.37-.305.683-.595.882-.805.066-.07.12-.13.159-.18a.928.928 0 0 0 .082-.124 1.509 1.509 0 0 0 .095-.207l.023-.07c.008-.023.014-.046.02-.067v-.002a1.602 1.602 0 0 0 .053-.3.378.378 0 0 0-.007-.137.818.818 0 0 0-.051-.09 1.029 1.029 0 0 0-.076-.11 1.936 1.936 0 0 0-.208-.221 2.563 2.563 0 0 0-.48-.345 2.177 2.177 0 0 0-.18-.095c-.02-.01-.043-.019-.064-.028l-.034-.015-.085-.035-.019-.007a2.607 2.607 0 0 0-.098-.036l-.012-.004a5.793 5.793 0 0 0-.11-.037l-.005-.002a6.794 6.794 0 0 0-.12-.036h-.001a6.69 6.69 0 0 0-.545-.13h-.002a6.291 6.291 0 0 0-.146-.027l-.008-.002-.141-.024-.021-.003-.135-.02-.033-.005c-.04-.007-.083-.012-.125-.017l-.052-.008-.11-.013c-.018-.002-.036-.005-.055-.006l-.046-.006-.17-.019.184-.114c.915.103 1.69.278 2.199.572.604.349.803.692.87.826.065.134-.019.708-.283 1.046-.264.337-1.142 1.14-2.05 1.742a11.402 11.402 0 0 0-.84.607 7.28 7.28 0 0 0-.313.272 4.603 4.603 0 0 0-.478.511c-.03.037-.057.074-.085.112a2.864 2.864 0 0 0-.27.464 1.293 1.293 0 0 0-.069.173 1.464 1.464 0 0 0-.06.213l-.005.03-.014.084a.991.991 0 0 0-.012.103.777.777 0 0 0-.004.087v.098l.003.053c0 .013.002.025.003.036a.736.736 0 0 0 .008.066.783.783 0 0 0 .016.098 2.858 2.858 0 0 0 .18.545 1.517 1.517 0 0 0 .092.162.952.952 0 0 0 .168.192.594.594 0 0 0 .083.059l.01.006a.25.25 0 0 0 .045.024c.01.006.024.011.037.017l.027.009.03.01a.447.447 0 0 0 .085.017c.016.003.03.004.046.005a.414.414 0 0 0 .094 0 .847.847 0 0 0 .207-.033l.05-.014c.136-.042.275-.105.409-.175.029-.014.056-.03.084-.045l.02-.01.09-.05.052-.029c.633-.353 1.549-1.188 3.436-2.074a25.786 25.786 0 0 1 1.012-.446l.128-.052.126-.05.24-.09c.156-.058.303-.108.44-.152l.104-.033.196-.058.177-.048.183-.045c.056-.012.112-.025.165-.035l.113-.023c.09-.016.177-.03.261-.042l.002-.001a3.744 3.744 0 0 1 .212-.025c.074-.008.145-.013.215-.017.113-.007.233-.018.363-.038l.099-.016c.067-.012.136-.026.207-.043l.11-.026c.04-.01.08-.02.12-.032l.096-.029.062-.02c.075-.024.15-.05.23-.08l.03-.011.109-.043c.01-.003.018-.008.027-.01l.117-.05c.056-.024.113-.05.171-.077l.132-.064c.007-.002.013-.006.02-.009h-.001ZM65.374 28.813ZM65.218 27.172l-.083.232-.028.08-.076.22c-.014.038-.025.074-.036.106-.033.1-.058.179-.076.24l-.008.03-.008.027a.785.785 0 0 0-.036.162c.003.036.032.13.097.231a4.029 4.029 0 0 0-.022.049.688.688 0 0 1-.12-.279c0-.037.031-.223.363-1.137a.852.852 0 0 1 .033.039Z" fill="#1A1C2C"/><path d="M65.09 28.654c-.015.033-.03.067-.047.1a.088.088 0 0 1-.066.051.092.092 0 0 1-.08-.027c-.15-.161-.24-.37-.252-.492-.004-.047-.015-.157.418-1.34a.09.09 0 0 1 .06-.054.088.088 0 0 1 .08.017c.03.024.057.049.084.075l-.015.04-.054.148a.851.851 0 0 0-.033-.039c-.332.914-.364 1.1-.362 1.137a.688.688 0 0 0 .119.279l.022-.049a.77.77 0 0 0 .126.154Z" fill="#1A1C2C"/><path d="M68.388 27.11c.263-.06.512-.209.747-.447a2.896 2.896 0 0 0 .18-.204l.043-.056a3.63 3.63 0 0 0 .13-.183 14.8 14.8 0 0 0-.701-.055 23.425 23.425 0 0 0-.387-.02l-.183-.008-.23-.008-.063.177-.068.182c-.07.191-.142.37-.214.535a1.021 1.021 0 0 0 .21.075 1.11 1.11 0 0 0 .537.011Zm-3.411 1.695a.088.088 0 0 0 .067-.05c.015-.034.03-.068.046-.1a.6.6 0 0 0 .283.158c.083.02.174.022.269.004.077-.012.157-.037.24-.074a2.22 2.22 0 0 0 .888-.707l.076-.102c.05-.07.098-.142.146-.22v-.001c.122-.196.239-.42.355-.68 0-.001 0-.002.002-.003v-.002l.063-.145c.023-.054.047-.11.07-.168a14.32 14.32 0 0 0 .223-.592 24.019 24.019 0 0 0-.568-.011h-.001l-.456-.004h-.16a20.605 20.605 0 0 0-.907.014 22.668 22.668 0 0 0-.186.49v.001a8.183 8.183 0 0 0-.05.131l-.04.107c-.015.044-.032.088-.049.133a1.006 1.006 0 0 0-.085-.075.088.088 0 0 0-.08-.016.09.09 0 0 0-.06.054c-.431 1.183-.421 1.292-.416 1.34.01.122.1.33.251.491.02.021.05.032.08.027h-.001Zm-3.628-4.811a.09.09 0 0 0-.114-.11l-.009-.044c1.855-.373 4.463-.676 4.501-.681.458-.053.978-.116 1.496-.18.636-1.07 1.266-1.38 2.012-1.509l.087-.015c.284-.043.744-.123 1.103-.186.516-.827 1.045-1.286 1.576-1.363.55-.08.845-.288.947-.373.54-.454 1.081-.668 2.11-.331.775.253 4.501.672 5.854.787.54.046 1.533-.013 2.494-.07 1.076-.064 2.188-.13 2.739-.056l.031.005c.01.002.018.004.027.008.4.077.782.371 1.11.859.302.446.539 1.033.686 1.698.31 1.402.162 2.858-.327 3.816a.151.151 0 0 1-.013.035c-.227.419-.444.67-.746.846-.346.201-.803.303-1.513.445l-.049.01c.008-.05.014-.097.022-.14-.258.05-.55.108-.885.177-2.035.418-2.019.308-3.753 1.595-.635.471-1.181.804-1.656 1.04-.006.003-.012.006-.02.008a6.691 6.691 0 0 1-.42.19l-.027.011c-.036.015-.073.03-.109.043l-.03.011c-.079.03-.155.057-.23.08l-.062.02-.095.03-.12.031-.11.026c-.072.017-.14.03-.208.043l-.099.016c-.13.02-.25.03-.363.038a4.893 4.893 0 0 0-.427.042l-.002.001c-.083.012-.17.026-.26.042l-.114.023c-.052.01-.109.023-.164.035l-.183.045c-.059.015-.117.031-.178.049a10.067 10.067 0 0 0-.98.333l-.125.049-.129.052a3.63 3.63 0 0 0-.193.08 8.6 8.6 0 0 0-.153.066l-.063.027a24.433 24.433 0 0 0-.603.273c-1.887.887-2.802 1.72-3.435 2.074l-.052.03-.09.049-.02.01-.085.045c-.134.07-.272.133-.408.175l-.05.014a.845.845 0 0 1-.384.022.42.42 0 0 1-.048-.011c-.01-.003-.022-.006-.03-.01l-.028-.01-.038-.016a.261.261 0 0 1-.044-.024.58.58 0 0 1-.093-.065l-.044-.04a.946.946 0 0 1-.164-.217 1.57 1.57 0 0 1-.13-.283 2.86 2.86 0 0 1-.102-.358.793.793 0 0 1-.011-.066l-.005-.032a.734.734 0 0 1-.01-.103.447.447 0 0 1-.003-.053.493.493 0 0 1-.001-.054v-.044c0-.029.002-.058.005-.086a1.228 1.228 0 0 1 .026-.188c0-.01.003-.02.005-.03a1.438 1.438 0 0 1 .085-.282l.004-.012c.012-.03.024-.062.039-.092a1.858 1.858 0 0 1 .095-.19c.053-.093.112-.184.176-.274l.084-.112a4.726 4.726 0 0 1 .478-.511l.102-.092a7.73 7.73 0 0 1 .287-.24c.268-.212.537-.396.765-.547.907-.6 1.786-1.404 2.05-1.742.264-.338.347-.912.282-1.046-.066-.134-.266-.477-.87-.826-.509-.294-1.283-.469-2.199-.572l-.184.115.17.018.047.006c-.27.438-.568.755-.892.944a1.537 1.537 0 0 1-.45.177 1.423 1.423 0 0 1-.91-.104c-.38.808-.775 1.293-1.283 1.589a2.415 2.415 0 0 1-.259.13c-.59.258-.958-.002-1.125-.18-.165-.175-.253-.392-.264-.52-.005-.056-.016-.165.42-1.356.116-.315.23-.615.301-.8-.652.024-1.317.064-1.933.1-1.28.076-2.387.141-2.934.055-.536-.084-.945-.398-1.122-.858a1.153 1.153 0 0 1-.023-.808l.042.018a.088.088 0 0 0 .005.065c.04.086.096.148.165.184a.981.981 0 0 0 .06.445c.142.37.475.621.914.69.518.082 1.611.017 2.877-.058a81.96 81.96 0 0 1 2.15-.108c.34-.01.676-.018.996-.017 1.364.003 2.386.046 3.211.136h.003c.011.001.022.002.032.005 1.03.115 1.766.308 2.252.589.565.326.813.66.923.882.101.208-.029.845-.297 1.189-.267.34-1.138 1.145-2.081 1.77a11.182 11.182 0 0 0-.83.599c-.07.058-.138.116-.208.177-.032.028-.066.057-.098.088a4.95 4.95 0 0 0-.465.497c-.028.036-.054.072-.08.108l-.009.012c-.06.083-.113.167-.16.249l-.005.01c-.014.025-.029.051-.041.078a1.569 1.569 0 0 0-.08.177l-.006.017a1.378 1.378 0 0 0-.076.254l-.005.022-.002.01a1.305 1.305 0 0 0-.027.244v.092l.001.009c0 .012 0 .025.003.038v.01a1.203 1.203 0 0 0 .008.086c.002.005.002.011.002.017l.002.008.002.013c.002.018.006.035.01.053.006.034.012.064.02.094.013.048.026.092.04.134.01.04.024.077.036.112.012.034.024.063.036.093.012.028.023.054.036.08.016.032.032.061.048.089l.036.062a.924.924 0 0 0 .105.127c.011.01.022.021.035.031a.453.453 0 0 0 .089.06l.016.01a.04.04 0 0 1 .01.005l.023.01.052.017a.26.26 0 0 0 .03.007c.01.003.015.004.022.004.004 0 .01 0 .014.002l.029.003.041.002h.035a.77.77 0 0 0 .183-.03l.03-.008.02-.006a2.435 2.435 0 0 0 .465-.209.093.093 0 0 1 .013-.006l.146-.081c.194-.108.411-.26.687-.452.612-.428 1.451-1.013 2.76-1.627.16-.075.313-.146.46-.211.05-.023.098-.043.147-.064l.062-.028.155-.065.096-.04c.033-.015.066-.029.1-.042l.18-.073.074-.029.035-.013c.072-.027.141-.054.209-.078.11-.041.22-.079.328-.115l.117-.039.104-.033.193-.057a5.88 5.88 0 0 1 .18-.05h.006a4.84 4.84 0 0 1 .472-.104c.04-.009.077-.015.114-.021l.143-.023.008-.001.146-.018.046-.005.026-.003c.077-.009.15-.014.222-.018a4.234 4.234 0 0 0 .646-.094l.095-.023.013-.003.116-.031.153-.046c.07-.022.142-.048.223-.079l.031-.01c.034-.015.07-.028.105-.042l.001-.001.142-.059c.053-.024.11-.048.166-.075.043-.02.087-.041.13-.063l.01-.003a10.974 10.974 0 0 0 1.646-1.032c1.582-1.174 1.739-1.205 3.244-1.506.169-.033.354-.07.56-.113l.626-.126.26-.052a9.693 9.693 0 0 0 1.04-.244h.002c.138-.018.275-.066.407-.143l.041-.025c.94-.597 1.385-2.583.993-4.428-.257-1.206-.83-2.121-1.496-2.39a1.06 1.06 0 0 0-.525-.074.922.922 0 0 1 .298-.015l-.021-.002a1.63 1.63 0 0 0-.084-.009l-.054-.005a11.58 11.58 0 0 0-1.193.003 22.756 22.756 0 0 0-.269.012l-.56.03-.385.022-.193.012-.382.023c-.095.004-.19.01-.283.015-.716.04-1.37.063-1.781.028-1.235-.105-5.064-.525-5.885-.794-1.03-.336-1.51-.089-1.982.307-.195.164-.534.334-1.014.404-.205.03-.417.128-.633.295-.022.017-.045.034-.067.053a2.973 2.973 0 0 0-.405.42 5.383 5.383 0 0 0-.409.583l-.568.1a65.031 65.031 0 0 1-.68.111c.103.03.208.058.316.085a8.063 8.063 0 0 1-.207.033l-.084.014c-.65.112-1.174.361-1.719 1.203 1.332-.167 2.56-.329 2.578-.331a.134.134 0 0 1 .036.265c-.027.003-2.672.352-4.419.554-1.559.18-3.232.431-4.438.668l.029-.099Z" fill="#1A1C2C"/><path d="M61.288 23.883a.09.09 0 0 1 .062.11l-.029.1-.2.04a.73.73 0 0 0 .02-.061l.037-.128a.09.09 0 0 1 .057-.06.083.083 0 0 1 .053-.001Z" fill="#1A1C2C"/><path d="M59.697 24.744c.161-.018.515-.104 1.02-.248a.616.616 0 0 0 .404-.363l.2-.04-.008.028a.793.793 0 0 1-.547.546c-.359.103-.833.23-1.05.255a.327.327 0 0 1-.194-.035.66.66 0 0 1 .045-.187c.043.046.09.048.13.044Z" fill="#3D3D3D"/><path d="M59.399 24.584a.089.089 0 0 1 .118.043.246.246 0 0 0 .05.073.662.662 0 0 0-.045.187.386.386 0 0 1-.165-.184.088.088 0 0 1-.005-.064.083.083 0 0 1 .047-.055Z" fill="#1A1C2C"/><path d="M59.43 24.41c.154-.188.884-.388 1.796-.57l.01.044a.091.091 0 0 0-.058.06l-.036.128a.72.72 0 0 1-.021.061c-.821.169-1.386.328-1.485.448a.429.429 0 0 0-.069.12.246.246 0 0 1-.05-.074.089.089 0 0 0-.165.012l-.041-.018a.736.736 0 0 1 .118-.21Z" fill="#1A1C2C"/><path d="M24.299 45.36c.38.156.63.076 1.08-.18.125-.07.174-.144.188-.21a.252.252 0 0 0-.124-.055c-.184-.025-.782.16-1.34.35.063.033.127.067.195.094ZM4.06 62.171c1.45 1.538 3.001 2.105 3.54 1.67.037-.03.103-.077.175-.128a.841.841 0 0 0 .103-.36c.05-.763-.557-1.935-1.549-2.988-1.055-1.117-2.311-1.831-3.101-1.831-.1 0-.193.013-.276.036l-.204.163h-.001c-.216.176-.237.482-.217.709.066.754.652 1.8 1.53 2.73Z" fill="#FFDBC4"/><path d="M25.494 45.38c-.325.184-.573.29-.835.29a1.16 1.16 0 0 1-.448-.097 2.34 2.34 0 0 1-.395-.209c-.118.04-.23.08-.33.116l-.34.118c-.209.074-.419.149-.625.22-.22.076-.444.15-.667.222-.144.045-.282.087-.41.122-.342.096-.82.22-1.42.368l-.372.091c-.489.362-1.454.989-2.426 1.122-1.384.192-1.393 1.421-1.461 1.874-.224 1.5.31 3.748-3.332 4.873-3.068.947-5.485 1.683-7.26 4.11-.079.11-.17.207-.267.291.527.323 1.075.77 1.59 1.316 1.035 1.097 1.667 2.338 1.612 3.161a1.658 1.658 0 0 1-.012.112c.585-.443 1.593-1.267 2.431-1.955l.454-.371c1.189-.972 2.073-1.536 2.423-1.664.129-.047.254-.06.412-.075.321-.032.808-.08 1.885-.455 1.412-.489 2.391-1.369 2.977-1.895l.022-.02c.239-.214.544-.511.867-.827.44-.43.894-.872 1.198-1.12.223-.181.541-.46.791-.77l.006-.006a.167.167 0 0 1 .24-.022.165.165 0 0 1 .058.156c.318-.006.567-.122.57-.123a.173.173 0 0 1 .15.312 1.865 1.865 0 0 1-.746.158 1.66 1.66 0 0 1-.221-.017c-.11.118-.233.238-.37.358.055.203.537.496.903.645a.174.174 0 0 1 .095.226.173.173 0 0 1-.226.094c-.157-.064-.81-.348-1.04-.735-.177.145-.412.363-.664.605.018.285.108.72.295.847.196.13.511.115.948.096.08-.004.165-.008.252-.01h.005c.18-.008.332-.01.481-.006.701.012 1.037-.32 1.117-.634.046-.179.025-.698.004-1.249-.007-.18-.015-.369-.02-.562a21.535 21.535 0 0 1-.004-1.157c.017-.614.027-.935-.428-1.118a2.093 2.093 0 0 0-.393-.105c-.05-.01-.1-.02-.144-.031-.58-.14-.722-.425-.79-.71l-.001-.004v-.002l-.03-.142c-.036-.186-.07-.36-.21-.535-.187-.234-.417-.266-.683-.301-.343-.047-.77-.104-1.023-.689a1.29 1.29 0 0 0-.133-.238.172.172 0 0 1-.062-.077c-.239-.262-.56-.26-.954-.232a.171.171 0 0 1-.184-.159.172.172 0 0 1 .159-.185c.419-.032.851-.032 1.187.294l.078-.04c.362-.18 1.157-.574 1.948-.964l.662-.326c.368-.181.708-.347.965-.47l.241-.116c.16-.076.317-.149.472-.22.7-.32 1.304-.599 1.543-.924.151-.204.19-.55.102-.813a.695.695 0 0 1-.217.183Z" fill="#FFDBC4"/><path d="M3.293 58.305a1.352 1.352 0 0 0-.31.021c-.213.165-.327.258-.343.272a.877.877 0 0 1 .502-.176l.15-.117Z" fill="#1A1C2C"/><path d="M19.652 46.621c-1.373.335-2.958.692-3.374.744-.875.11-.992.23-1.43.673-.04.04-.14.148-.291.312-.74.798-2.71 2.92-4.699 4.782-2.327 2.176-3.347 2.884-4.757 3.865l-.143.1a48.46 48.46 0 0 0-1.666 1.208c.46.017 1.022.224 1.614.586.097-.084.188-.181.267-.29 1.774-2.428 4.191-3.164 7.26-4.11 3.641-1.127 3.107-3.374 3.331-4.874.068-.453.077-1.682 1.461-1.874.973-.134 1.938-.76 2.427-1.122Z" fill="#FFD1B4"/><path d="M3.142 58.422c.448-.03 1.04.17 1.667.549.034-.026.066-.052.097-.08-.591-.362-1.154-.568-1.613-.586l-.151.117Z" fill="#343434"/><path d="M7.6 63.841c-.539.435-2.09-.133-3.54-1.67-.878-.93-1.464-1.975-1.53-2.73-.02-.226.001-.533.217-.707 0 0 .072-.06.205-.165a.686.686 0 0 0-.242.121c-.144.117-.225.296-.241.533-.052.763.556 1.935 1.548 2.987 1.334 1.415 2.991 2.182 3.619 1.676a.584.584 0 0 0 .14-.173 2.89 2.89 0 0 0-.176.128Z" fill="#1A1C2C"/><path d="M8.096 63.48c.005-.035.01-.074.011-.112.056-.823-.576-2.064-1.61-3.16a7.919 7.919 0 0 0-1.591-1.317 1.616 1.616 0 0 1-.097.08c-.627-.38-1.219-.578-1.668-.55l-.189.148c.083-.023.176-.035.276-.035.79 0 2.046.714 3.101 1.831.992 1.053 1.6 2.225 1.549 2.987a.841.841 0 0 1-.103.361l.051-.034.005-.004c.072-.05.163-.117.265-.195Z" fill="#343434"/><path d="m7.826 63.679-.05.034a.583.583 0 0 1-.14.173c-.628.506-2.285-.26-3.62-1.675-.991-1.052-1.599-2.225-1.547-2.988.016-.237.097-.416.241-.532a.684.684 0 0 1 .242-.122l.19-.147a.876.876 0 0 0-.502.176c.016-.014.13-.107.342-.272-.16.03-.3.091-.416.185-.197.159-.307.393-.328.696-.055.825.577 2.066 1.611 3.161 1.087 1.151 2.317 1.86 3.182 1.902l.083.003c.266 0 .493-.067.667-.208a.896.896 0 0 0 .315-.585 8.363 8.363 0 0 1-.265.195l-.005.004ZM16.279 47.365c.415-.052 2-.41 3.373-.744.208-.153.33-.258.33-.258-1.47.364-3.293.777-3.725.831-.915.116-1.068.253-1.533.723-.23.235-2.59 2.85-4.985 5.089-2.395 2.24-3.391 2.913-4.88 3.949a43.16 43.16 0 0 0-1.877 1.371c.097-.019.2-.025.31-.02.37-.282.924-.693 1.666-1.21l.143-.099c1.41-.981 2.43-1.69 4.757-3.865 1.99-1.862 3.958-3.984 4.699-4.782.15-.164.251-.272.29-.312.439-.444.556-.562 1.432-.673ZM21.802 45.875c.176-.056.363-.119.553-.184-.003-.012-.007-.024-.007-.037v-.143a71.1 71.1 0 0 1-.373.124l-.173.056v.184ZM21.929 57.082c-.04 0-.078 0-.117.003.007.058.019.115.031.173l.118-.005a1.44 1.44 0 0 1-.032-.171Z" fill="#1A1C2C"/><path d="M21.928 57.071a.116.116 0 0 0-.115-.102H21.8a.115.115 0 0 0-.1.127c.005.056.015.11.027.164l.117-.003a1.8 1.8 0 0 1-.03-.173c.037-.003.077-.003.116-.004l-.001-.01v.001ZM21.983 51.31a.558.558 0 0 1 0 0Z" fill="#1A1C2C"/><path d="M21.802 51.3c.055.23.154.427.546.55v-.182c-.166-.06-.255-.134-.306-.218a.408.408 0 0 1-.06-.14l-.007-.032a3.548 3.548 0 0 0-.173-.561v.583ZM22.348 48.145v-.193l-.546.27v.193l.173-.086.373-.184ZM22.66 54.414a.173.173 0 0 0-.23-.08 1.554 1.554 0 0 1-.57.121.165.165 0 0 0-.058-.155.167.167 0 0 0-.24.022l-.006.007c-.25.309-.568.588-.791.769-.305.248-.759.69-1.198 1.12-.323.316-.629.613-.867.828l-.023.02c-.585.525-1.564 1.405-2.976 1.894-1.077.374-1.564.422-1.886.455a1.585 1.585 0 0 0-.412.075c-.349.128-1.234.692-2.423 1.664l-.453.371c-.838.688-1.846 1.512-2.431 1.955a.896.896 0 0 1-.315.585c-.174.14-.401.207-.666.207-.028 0-.055 0-.084-.002l-.003.053c.031.003.062.004.093.004.277 0 .515-.07.696-.217.033-.027.107-.079.179-.128l.038-.028.039-.028h.002c.532-.382 1.712-1.348 2.67-2.133l.453-.371c1.1-.9 2.001-1.49 2.323-1.607a1.32 1.32 0 0 1 .328-.057c.317-.03.848-.084 1.964-.47 1.477-.512 2.529-1.458 3.094-1.965l.022-.019c.245-.22.552-.521.879-.838l.189-.186c.048.285.16.66.416.833.202.135.449.167.745.167.127 0 .264-.006.41-.013l.099-.003.058-.003a1.558 1.558 0 0 1-.028-.163.116.116 0 0 1 .101-.128h.014l-.002-.057h-.006l-.251.01c-.437.02-.752.034-.948-.096-.187-.126-.277-.562-.296-.847.253-.242.487-.46.665-.605.23.387.882.671 1.04.736.022.009.044.012.066.012.068 0 .132-.04.16-.107a.174.174 0 0 0-.096-.226c-.365-.149-.847-.442-.901-.645.136-.12.258-.24.369-.359.076.01.15.018.221.018.412 0 .729-.15.745-.158a.172.172 0 0 0 .08-.23l.002-.002Z" fill="#1A1C2C"/><path d="M22.285 57.252c.9.013 1.346-.453 1.459-.893.038-.15.043-.413.035-.752l-.141-.065a.097.097 0 0 1-.035-.025.114.114 0 0 1-.022-.128c.004-.01.01-.016.018-.025-.008-.238-.02-.503-.03-.78l-.052-.023a.114.114 0 0 1-.067-.102 21.39 21.39 0 0 1-.003-1.153c.017-.61.027-.971-.466-1.17l-.02.05c.454.183.445.504.428 1.117-.002.069-.005.139-.006.212-.006.35.002.708.01.947.005.192.013.381.02.561.02.551.041 1.07-.005 1.25-.08.313-.415.645-1.116.633a6.912 6.912 0 0 0-.48.006l.001.057c.058 0 .108.044.115.102v.01c.008.058.02.116.033.173h.06a3.32 3.32 0 0 1 .264 0v-.002Z" fill="#1A1C2C"/><path d="m23.517 54.56.053.025-.005-.128c-.01-.31-.015-.63-.01-.939.017-.867.131-1.407-.955-1.607a2.802 2.802 0 0 1-.136-.028c-.042-.01-.079-.022-.116-.033v.032c0 .054.037.1.088.113l.143.03c.161.03.294.065.401.11.494.2.483.56.466 1.17l-.006.21c-.005.348.003.706.01.944 0 .045.027.084.067.102ZM23.581 55.389a.114.114 0 0 0 .022.128c0-.05-.003-.1-.004-.153-.007.009-.014.015-.018.025Z" fill="#1A1C2C"/><path d="M23.677 53.311c.02-.733.038-1.313-1.056-1.514l-.042-.008v-.06l-.074-.015a1.915 1.915 0 0 1-.156-.046v.182c.036.01.073.022.115.032l.136.03c1.086.199.972.739.956 1.606-.006.309 0 .628.01.939 0 .042.003.085.004.128l.175.08-.007-.214-.001-.043-.059-.026a20.384 20.384 0 0 1 0-1.07ZM23.599 55.364a.113.113 0 0 1 .135-.032l.037.017-.012-.339-.014-.344-.175-.081.029.78Z" fill="#1A1C2C"/><path d="M23.734 55.332a.113.113 0 0 0-.135.032c0 .052.003.103.004.153.01.01.021.02.035.025l.14.064c-.002-.081-.004-.167-.008-.257l-.036-.017ZM22.62 51.797c1.095.201 1.078.781 1.057 1.515-.002.067-.005.136-.006.207-.006.31.001.63.007.863l.059.026a19.214 19.214 0 0 1-.002-1.094c.02-.731.039-1.363-1.104-1.573l-.052-.012v.06l.041.008ZM23.486 45.48l.33-.116c-.017-.01-.035-.02-.051-.031l-.01-.01c-.175.06-.351.124-.524.184-.243.087-.49.173-.729.256a.113.113 0 0 1-.146-.072c-.19.065-.378.128-.554.184v-.184l-.173.056c-.097.029-.191.057-.28.082-.337.094-.811.218-1.408.365-1.58.393-3.312.779-3.705.829-.953.12-1.138.27-1.635.772-.04.04-.142.151-.298.32-.738.796-2.7 2.912-4.681 4.764-2.309 2.16-3.32 2.861-4.72 3.834l-.141.099c-1.479 1.03-2.226 1.65-2.234 1.655l-.002.003c-.261.214-.378.56-.34 1.001.073.841.68 1.939 1.623 2.938 1.092 1.157 2.336 1.867 3.22 1.914l.004-.053c-.865-.042-2.096-.75-3.182-1.902-1.035-1.095-1.667-2.336-1.611-3.16.02-.304.13-.538.327-.697a.927.927 0 0 1 .416-.185 43.16 43.16 0 0 1 1.877-1.371c1.489-1.036 2.485-1.71 4.88-3.95 2.396-2.239 4.754-4.853 4.985-5.087.465-.471.618-.608 1.533-.724.432-.054 2.255-.467 3.725-.831 0 0-.122.105-.33.258l.372-.09c.6-.148 1.078-.273 1.42-.369.127-.035.266-.077.41-.122.223-.072.447-.146.666-.223.207-.07.417-.145.627-.219l.339-.118ZM25.45 44.86c-.193-.029-.77.147-1.417.367l.07.038c.558-.19 1.156-.375 1.34-.35a.25.25 0 0 1 .124.055.191.191 0 0 0 .005-.067.293.293 0 0 0-.121-.044Z" fill="#1A1C2C"/><path d="M25.38 45.18c-.452.255-.7.336-1.081.18a2.176 2.176 0 0 1-.197-.095l-.287.099c.123.08.254.151.396.209.163.067.307.098.447.098.262 0 .51-.107.835-.29.1-.057.17-.12.217-.184-.006-.016-.01-.035-.016-.05a.446.446 0 0 0-.127-.177c-.014.066-.063.14-.188.21Z" fill="#343434"/><path d="M25.609 46.01c-.239.325-.843.603-1.543.925-.155.07-.313.143-.472.219l-.241.115c-.257.124-.598.29-.965.47l-.662.327a706.4 706.4 0 0 0-1.948.964l-.079.04c-.335-.326-.768-.326-1.187-.295a.172.172 0 0 0-.159.186.171.171 0 0 0 .185.16c.393-.03.715-.03.954.231a.173.173 0 0 0 .062.077c.047.066.091.143.133.238.253.585.68.642 1.022.688.267.036.496.067.684.302.14.175.173.349.21.535.01.048.019.095.03.142v.005c.068.286.211.571.79.71.045.012.094.021.145.032.159.029.288.063.393.105l.02-.051a1.992 1.992 0 0 0-.402-.11l-.143-.03a.116.116 0 0 1-.088-.114v-.03c-.392-.124-.49-.32-.546-.551v-.583a1.139 1.139 0 0 0-.173-.317c-.268-.305-.588-.349-.873-.387-.335-.045-.576-.078-.752-.484a1.823 1.823 0 0 0-.09-.18l.018-.008c.324-.162.993-.494 1.697-.841l.173-.086v-.192l.546-.27v-.056c0-.046.026-.085.065-.104.504-.248.943-.462 1.205-.586l.47-.218c.709-.325 1.32-.607 1.568-.945a.955.955 0 0 0 .16-.55c0-.124-.022-.249-.065-.357a.54.54 0 0 1-.04.06c.088.264.049.61-.102.814Z" fill="#1A1C2C"/><path d="M24.033 45.227c.646-.22 1.224-.396 1.418-.368a.293.293 0 0 1 .12.044.191.191 0 0 1-.004.067c.061.047.1.116.127.177.006.015.01.034.016.05a.568.568 0 0 0 .04-.061.965.965 0 0 1 .065.357c0 .203-.055.41-.159.55-.248.339-.86.62-1.567.945-.154.07-.31.143-.47.218-.263.125-.702.338-1.206.586a.115.115 0 0 0-.065.104v.056c.039-.02.079-.038.116-.056.368-.181.707-.346.964-.47l.24-.115c.91-.431 1.759-.76 2.08-1.198.322-.437.213-1.3-.281-1.368-.278-.04-1.121.248-2.04.572-.319.112-.646.228-.963.338a3.81 3.81 0 0 1-.109.036.113.113 0 0 0 .146.073c.24-.084.486-.17.73-.257l.524-.184c.004.003.006.008.01.01.016.012.034.02.05.031l.288-.099-.07-.038Z" fill="#1A1C2C"/><path d="M24.186 47.197c.737-.338 1.372-.631 1.656-1.016.218-.297.268-.79.117-1.147a.756.756 0 0 0-.177-.26l-.003-.006a.114.114 0 0 0-.117-.08.533.533 0 0 0-.179-.057c-.308-.044-1.085.22-2.33.66-.191.067-.384.136-.574.201v-.06c-.058.019-.115.04-.172.06l-.059.019v.143c0 .013.004.025.007.037l.109-.036c.317-.11.644-.226.964-.338.918-.324 1.761-.611 2.039-.572.494.068.603.93.281 1.368-.321.438-1.17.767-2.08 1.198l-.24.115c-.257.124-.596.289-.964.47l-.116.056v.193l.192-.095c.014-.005.026-.012.04-.018v-.065c.475-.234.887-.433 1.137-.552.16-.075.316-.148.469-.218Z" fill="#1A1C2C"/><path d="m23.37 45.153-.338.119-.453.159v.061l.575-.202c1.244-.44 2.021-.703 2.33-.66a.532.532 0 0 1 .178.058.115.115 0 0 1 .118.08c0 .002 0 .004.002.007a.756.756 0 0 1 .178.26c.15.357.1.85-.118 1.146-.284.385-.92.678-1.656 1.016-.152.07-.31.143-.468.218-.25.118-.662.318-1.139.552v.065c.353-.174.676-.331.924-.45l.24-.115c.158-.075.315-.148.467-.217.744-.343 1.386-.638 1.678-1.036.233-.316.285-.821.125-1.202-.107-.251-.292-.408-.522-.44-.288-.04-.94.165-2.12.581Z" fill="#1A1C2C"/></svg>