<svg width="90" height="90" fill="none" xmlns="http://www.w3.org/2000/svg"><path d="M78.31 48.202c0-.622.22-1.047.56-1.244.339-.196.816-.174 1.355.137.538.31 1.03.85 1.388 1.47.357.62.577 1.317.577 1.939 0 .622-.22 1.047-.56 1.244-.339.196-.816.174-1.355-.137-.538-.31-1.03-.85-1.387-1.47-.358-.62-.578-1.317-.578-1.939Z" fill="#00A629" stroke="#000" stroke-width=".101"/><path d="M78.029 48.202c0-.622.22-1.047.559-1.244.34-.196.817-.174 1.356.137.538.31 1.03.85 1.387 1.47.358.62.578 1.317.578 1.939 0 .622-.22 1.047-.56 1.244-.34.196-.817.174-1.355-.137-.538-.31-1.03-.85-1.388-1.47-.357-.62-.577-1.317-.577-1.939Z" fill="#00FF41" stroke="#000" stroke-width=".101"/><path d="M80.582 50.754v-.558l-.57-.327v-.504l.186-.109v-.337l-.186.111v-.836l-.483-.275v1.395l-.152.088.003.324.149-.083v.504l1.053.607Z" fill="#fff"/><path d="M84.429 53.662c.691-.4 1.308-.43 1.75-.175.44.255.723.805.723 1.603 0 .798-.284 1.691-.742 2.487-.459.795-1.09 1.488-1.781 1.887-.692.4-1.309.43-1.75.175-.44-.255-.723-.805-.723-1.603 0-.797.283-1.69.742-2.486.458-.796 1.09-1.488 1.78-1.888Z" fill="#4A2FAF" stroke="#000" stroke-width=".101"/><path d="M84.773 53.662c.692-.4 1.309-.43 1.75-.175.44.255.723.805.723 1.603 0 .798-.283 1.691-.742 2.487-.459.795-1.09 1.488-1.781 1.887-.691.4-1.308.43-1.75.175-.44-.255-.723-.805-.723-1.603 0-.797.283-1.69.742-2.486.459-.796 1.09-1.488 1.781-1.888Z" fill="#FF72FF" stroke="#000" stroke-width=".101"/><path d="M84.766 54.594v-.005l.638 1.866-.498.753h-.786l.646-2.614Z" fill="#E6E7E8"/><path d="m85.404 56.661-.444.69h-.84l.64 1.191.644-1.88Z" fill="#fff"/><path d="m84.766 54.595.089 1.69-.735.924.646-2.614Z" fill="#F1F2F2"/><path d="m85.407 56.456-.55-.172.05.925.5-.754Z" fill="#FAFAFA"/><path d="m84.855 56.284.048.925h-.783l.735-.925Z" fill="#fff"/><path opacity=".08" d="m85.403 56.661-.644 1.881.2-1.19.444-.69Z" fill="#231F20"/><path d="M57.224 43.948c0-.622.22-1.047.56-1.244.339-.196.817-.174 1.355.137.538.31 1.03.85 1.388 1.47.357.62.577 1.317.577 1.939 0 .622-.22 1.047-.559 1.244-.34.196-.817.174-1.356-.137-.538-.31-1.03-.85-1.387-1.47-.358-.62-.578-1.317-.578-1.939Z" fill="#FEC55E" stroke="#000" stroke-width=".101"/><path opacity=".36" d="M57.224 43.948c0-.622.22-1.047.56-1.244.339-.196.817-.174 1.355.137.538.31 1.03.85 1.388 1.47.357.62.577 1.317.577 1.939 0 .622-.22 1.047-.559 1.244-.34.196-.817.174-1.356-.137-.538-.31-1.03-.85-1.387-1.47-.358-.62-.578-1.317-.578-1.939Z" fill="#231F20" stroke="#000" stroke-width=".101"/><path d="M56.943 43.948c0-.622.22-1.047.559-1.244.34-.196.817-.174 1.356.137.538.31 1.03.85 1.387 1.47.358.62.578 1.317.578 1.939 0 .622-.22 1.047-.56 1.244-.34.196-.817.174-1.355-.137-.538-.31-1.03-.85-1.388-1.47-.357-.62-.577-1.317-.577-1.939Z" fill="#FEC55E" stroke="#000" stroke-width=".101"/><path d="m59.49 45.405-.092-.051a.332.332 0 0 0 .089-.223v-.315c0-.187-.1-.355-.26-.444l-.144-.086v-.3l-.257-.147v.292l-.103-.06v-.283l-.257-.155v.284l-.16-.095v.31l.16.091v.584l-.16-.092v.295l.16.095v.578l-.16-.094v.306l.16.094v.232l.257.146v-.226l.103.06v.22l.257.15v-.22l.18.102a.33.33 0 0 0 .327 0 .32.32 0 0 0 .163-.28v-.318a.51.51 0 0 0-.26-.444l-.004-.006Zm-.767-1.027.375.22a.25.25 0 0 1 .128.22v.315a.069.069 0 0 1-.103.06l-.403-.231v-.582l.003-.002Zm.77 1.792a.068.068 0 0 1-.104.06l-.666-.392v-.561l.64.358c.08.045.13.128.13.22v.318-.003Z" fill="#fff"/><path d="M14.832 53.674a3.31 3.31 0 0 1-3.2-.016l-8.95-5.004a1.318 1.318 0 0 1-.68-1.213v-1.529l24.522-12.594.002-.001a3.31 3.31 0 0 1 3.201.016l.006.003 9.622 4.527v1.561c.028.483-.202.975-.688 1.24l-23.835 13.01Z" fill="#FF72FF" stroke="#000" stroke-width=".201"/><path d="m11.632 52.004-8.95-5.002a1.33 1.33 0 0 1 .012-2.328l23.832-13.01a3.31 3.31 0 0 1 3.2.017l8.951 5.003a1.33 1.33 0 0 1-.01 2.327L14.832 52.02a3.31 3.31 0 0 1-3.2-.017Z" fill="#FF72FF" stroke="#000" stroke-width=".201"/><path d="M13.25 51.843h-.008a.216.216 0 1 1 0-.433h.008c.118 0 .216.098.216.217a.216.216 0 0 1-.214.216h-.002Zm-1.143-.248a.21.21 0 0 1-.106-.286.213.213 0 0 1 .286-.105c.11.048.156.176.105.285a.214.214 0 0 1-.195.126.19.19 0 0 1-.09-.019v-.001Zm1.997-.108a.22.22 0 0 1 .105-.287.22.22 0 0 1 .287.105.217.217 0 0 1-.394.18l.002.002Zm.957-.5a.216.216 0 1 1 .377-.206.216.216 0 0 1-.188.32.213.213 0 0 1-.19-.114Zm-3.917.081a.215.215 0 1 1 .209-.376c.103.056.143.19.084.293a.223.223 0 0 1-.19.111.21.21 0 0 1-.103-.028Zm4.866-.6a.214.214 0 0 1 .085-.291.217.217 0 0 1 .295.086.213.213 0 0 1-.087.292.212.212 0 0 1-.291-.087h-.002Zm-5.81.072a.216.216 0 0 1 .21-.376.216.216 0 0 1-.21.376Zm6.758-.589a.218.218 0 0 1 .086-.293.218.218 0 0 1 .294.086.216.216 0 0 1-.19.32.221.221 0 0 1-.19-.113Zm-7.7.06a.215.215 0 1 1 .209-.376c.103.059.143.19.084.294a.215.215 0 0 1-.293.082Zm8.65-.579a.216.216 0 0 1 .38-.207.217.217 0 0 1-.19.32.213.213 0 0 1-.19-.113Zm-9.596.053a.216.216 0 0 1 .21-.376c.104.058.142.19.086.293a.22.22 0 0 1-.19.111.21.21 0 0 1-.106-.028Zm10.543-.568a.217.217 0 1 1 .192.113.219.219 0 0 1-.19-.113h-.002Zm-11.487.041a.215.215 0 1 1 .21-.375.215.215 0 0 1-.21.376Zm12.437-.56a.213.213 0 0 1 .086-.291.214.214 0 0 1 .291.084.215.215 0 1 1-.377.207Zm-13.379.034a.219.219 0 0 1-.084-.297.216.216 0 1 1 .084.295v.002Zm14.328-.55a.215.215 0 1 1 .378-.208.216.216 0 1 1-.378.207Zm-15.273.02a.213.213 0 0 1-.083-.292.215.215 0 1 1 .376.209.214.214 0 0 1-.293.083Zm16.22-.542a.214.214 0 0 1 .085-.291.215.215 0 0 1 .294.084.214.214 0 0 1-.087.294.212.212 0 0 1-.291-.087Zm-17.164.015a.22.22 0 0 1-.085-.297.218.218 0 0 1 .38.21.214.214 0 0 1-.188.112.224.224 0 0 1-.105-.027l-.002.002Zm18.11-.532a.218.218 0 0 1 .087-.293.218.218 0 0 1 .293.086.219.219 0 0 1-.086.294.229.229 0 0 1-.104.026.221.221 0 0 1-.19-.113Zm-19.056.004a.217.217 0 0 1 .21-.378c.104.058.142.19.083.293a.216.216 0 0 1-.188.113.244.244 0 0 1-.105-.028Zm20.006-.523a.219.219 0 0 1 .086-.293.219.219 0 0 1 .294.086.217.217 0 0 1-.19.32.215.215 0 0 1-.19-.113Zm-20.965-.2a.22.22 0 0 1 .12-.281c.111-.045.235.01.282.12a.22.22 0 0 1-.12.282.218.218 0 0 1-.282-.12Zm21.915-.317a.216.216 0 0 1 .086-.293.22.22 0 0 1 .295.086.219.219 0 0 1-.086.294.217.217 0 0 1-.293-.087h-.002Zm-21.405-.476a.216.216 0 0 1 .38-.206.216.216 0 1 1-.38.206Zm22.354-.043a.213.213 0 0 1 .087-.291.214.214 0 0 1 .291.084.214.214 0 0 1-.086.294.214.214 0 0 1-.291-.086Zm-21.405-.474a.217.217 0 0 1 .087-.293.215.215 0 1 1 .206.378.209.209 0 0 1-.103.028.217.217 0 0 1-.19-.113Zm22.355-.043a.215.215 0 0 1 .086-.293.213.213 0 0 1 .291.086.213.213 0 0 1-.086.292.201.201 0 0 1-.101.028.217.217 0 0 1-.19-.113ZM5.04 44.295a.217.217 0 0 1 .086-.293.219.219 0 0 1 .293.087.218.218 0 0 1-.19.32.217.217 0 0 1-.19-.114Zm22.352-.043a.219.219 0 0 1 .087-.293.216.216 0 1 1-.087.293ZM5.99 43.778a.214.214 0 0 1 .087-.293.215.215 0 0 1 .291.087.213.213 0 0 1-.086.291.202.202 0 0 1-.102.028.217.217 0 0 1-.19-.113Zm22.35-.043a.218.218 0 0 1 .087-.293.217.217 0 0 1 .294.086.219.219 0 0 1-.087.294.217.217 0 0 1-.293-.086ZM6.939 43.26a.216.216 0 1 1 .378-.207.216.216 0 0 1-.378.207Zm22.352-.043a.219.219 0 0 1 .087-.293.219.219 0 0 1 .293.086.218.218 0 0 1-.086.294.228.228 0 0 1-.104.026.22.22 0 0 1-.19-.113Zm-21.404-.474a.217.217 0 0 1 .086-.293.215.215 0 1 1 .207.378.204.204 0 0 1-.104.028.221.221 0 0 1-.19-.113ZM30.24 42.7a.214.214 0 0 1 .087-.293.216.216 0 0 1 .293.086.219.219 0 0 1-.087.294.217.217 0 0 1-.293-.087Zm-21.405-.476a.219.219 0 0 1 .087-.293.218.218 0 0 1 .293.087.218.218 0 0 1-.087.293.228.228 0 0 1-.103.026.22.22 0 0 1-.19-.113Zm22.354-.043a.216.216 0 1 1 .378-.207.216.216 0 0 1-.378.207Zm-21.404-.474a.217.217 0 0 1 .086-.293.216.216 0 1 1 .207.378.21.21 0 0 1-.104.028.219.219 0 0 1-.19-.113Zm22.354-.043a.215.215 0 0 1 .085-.293.214.214 0 0 1 .293.086.213.213 0 0 1-.087.292.204.204 0 0 1-.103.028.216.216 0 0 1-.188-.113Zm-21.405-.476a.217.217 0 0 1 .087-.293.219.219 0 0 1 .293.087.218.218 0 0 1-.087.293.233.233 0 0 1-.103.026.213.213 0 0 1-.19-.113Zm22.353-.043a.218.218 0 0 1 .086-.293.217.217 0 0 1 .294.086.217.217 0 0 1-.19.32.221.221 0 0 1-.19-.113Zm-21.403-.474a.214.214 0 0 1 .086-.293.213.213 0 0 1 .292.086.213.213 0 0 1-.087.292.202.202 0 0 1-.101.028.217.217 0 0 1-.19-.113Zm22.35-.043a.217.217 0 0 1 .087-.293.215.215 0 1 1 .207.378.21.21 0 0 1-.104.028.217.217 0 0 1-.19-.113Zm-21.403-.476a.217.217 0 0 1 .085-.293.218.218 0 0 1 .293.087.215.215 0 1 1-.378.206Zm22.353-.043a.217.217 0 0 1 .086-.293.219.219 0 0 1 .294.086.218.218 0 0 1-.087.294.229.229 0 0 1-.103.026.22.22 0 0 1-.19-.113Zm-21.405-.476a.216.216 0 0 1 .38-.205.215.215 0 0 1-.087.292.21.21 0 0 1-.103.028.22.22 0 0 1-.19-.115Zm22.354-.043a.213.213 0 0 1 .087-.291.213.213 0 0 1 .291.086.214.214 0 0 1-.084.292.214.214 0 0 1-.104.028.215.215 0 0 1-.19-.115Zm-21.404-.474a.218.218 0 0 1 .086-.293.221.221 0 0 1 .295.086.218.218 0 0 1-.086.294.219.219 0 0 1-.293-.087h-.003Zm22.354-.043a.216.216 0 0 1 .085-.293.218.218 0 0 1 .293.086.215.215 0 1 1-.378.207Zm-21.405-.476a.216.216 0 1 1 .19.113.213.213 0 0 1-.19-.113Zm22.355-.043a.214.214 0 0 1 .084-.291.214.214 0 0 1 .293.086.213.213 0 0 1-.086.292.212.212 0 0 1-.291-.087Zm-21.405-.474a.215.215 0 1 1 .377-.207.216.216 0 0 1-.188.32.215.215 0 0 1-.19-.113Zm21.888-.364a.215.215 0 0 1 .4-.162.217.217 0 0 1-.116.282.22.22 0 0 1-.083.015.214.214 0 0 1-.201-.134v-.002Zm-20.94-.155a.214.214 0 0 1 .084-.291.215.215 0 0 1 .293.084.214.214 0 0 1-.086.294.213.213 0 0 1-.291-.087Zm20.167-.351a.216.216 0 1 1 .209-.376.215.215 0 1 1-.21.376Zm-19.218-.164a.216.216 0 0 1 .084-.293.216.216 0 1 1 .104.406.216.216 0 0 1-.188-.113Zm18.274-.36a.216.216 0 0 1-.083-.294.215.215 0 1 1 .376.209.214.214 0 0 1-.188.11.243.243 0 0 1-.105-.026Zm-17.327-.159a.216.216 0 0 1 .38-.207.216.216 0 1 1-.38.207Zm16.383-.37a.218.218 0 0 1-.084-.294.215.215 0 0 1 .293-.084.215.215 0 0 1-.104.404.224.224 0 0 1-.105-.026Zm-15.435-.147a.217.217 0 1 1 .192.113.22.22 0 0 1-.19-.113h-.002Zm14.491-.38a.215.215 0 0 1-.084-.293.217.217 0 0 1 .293-.085c.103.059.143.19.085.294a.22.22 0 0 1-.294.084Zm-13.543-.139a.216.216 0 1 1 .378-.207.215.215 0 0 1-.188.32.211.211 0 0 1-.19-.113Zm12.598-.39a.216.216 0 0 1-.083-.292.215.215 0 0 1 .293-.085c.104.058.141.19.083.293a.216.216 0 0 1-.188.113.23.23 0 0 1-.105-.028Zm-11.649-.127a.215.215 0 0 1 .087-.293.217.217 0 1 1 .103.406.217.217 0 0 1-.19-.113Zm10.707-.4a.215.215 0 0 1-.085-.294.217.217 0 1 1 .19.322.231.231 0 0 1-.104-.028h-.002Zm-9.757-.119a.214.214 0 0 1 .084-.291.215.215 0 0 1 .294.084.214.214 0 0 1-.087.294.216.216 0 0 1-.291-.087Zm8.81-.408a.216.216 0 0 1 .211-.378c.104.059.141.19.083.294a.216.216 0 0 1-.188.112.21.21 0 0 1-.105-.028Zm-7.864-.109a.217.217 0 0 1 .086-.293.215.215 0 0 1 .293.086.217.217 0 0 1-.19.32.221.221 0 0 1-.19-.113Zm6.92-.42a.216.216 0 1 1 .294-.08.218.218 0 0 1-.188.11.21.21 0 0 1-.105-.027v-.002Zm-5.97-.099a.216.216 0 0 1 .38-.207.217.217 0 0 1-.191.32.22.22 0 0 1-.19-.113Zm5.029-.429a.215.215 0 0 1-.085-.293.218.218 0 0 1 .294-.084.22.22 0 0 1 .084.296.223.223 0 0 1-.19.111.209.209 0 0 1-.103-.028v-.002Zm-4.08-.088a.216.216 0 1 1 .378-.207.216.216 0 0 1-.378.207Zm.945-.528a.217.217 0 0 1 .106-.286.219.219 0 0 1 .287.105.217.217 0 0 1-.105.286.2.2 0 0 1-.09.023.217.217 0 0 1-.198-.128Zm2.204.103c-.109-.049-.158-.177-.109-.286.05-.107.18-.158.288-.107a.217.217 0 0 1-.18.395l.001-.002Zm-1.175-.423c0-.118.098-.216.216-.216a.216.216 0 1 1-.216.216Z" fill="#fff"/><path d="M73.383 73.498a3.31 3.31 0 0 0 3.201-.017l8.95-5.003c.472-.264.698-.742.68-1.214v-1.529L61.692 53.141l-.002-.001a3.31 3.31 0 0 0-3.201.016l-.006.004-9.622 4.526v1.561c-.028.483.202.975.688 1.241l23.834 13.01Z" fill="#00FF41" stroke="#000" stroke-width=".201"/><path d="m76.584 71.826 8.95-5.001a1.33 1.33 0 0 0-.012-2.329L61.69 51.486a3.31 3.31 0 0 0-3.201.017l-8.95 5.004a1.33 1.33 0 0 0 .01 2.327v-.001l23.834 13.01a3.31 3.31 0 0 0 3.201-.017Z" fill="#00FF41" stroke="#000" stroke-width=".201"/><path d="M74.966 71.666h.007a.216.216 0 1 0 0-.433h-.007a.216.216 0 0 0-.002.433h.002Zm1.143-.248a.21.21 0 0 0 .105-.286.213.213 0 0 0-.285-.106.213.213 0 0 0-.106.286.214.214 0 0 0 .196.126.19.19 0 0 0 .09-.019v-.001Zm-1.997-.108a.22.22 0 0 0-.105-.287.22.22 0 0 0-.288.105.217.217 0 0 0 .395.18l-.002.002Zm-.957-.5a.216.216 0 1 0-.378-.207.216.216 0 0 0 .188.32.213.213 0 0 0 .19-.113Zm3.917.081a.215.215 0 1 0-.209-.376.216.216 0 0 0-.085.293c.042.07.115.111.19.111.034 0 .072-.01.104-.028Zm-4.866-.6A.214.214 0 0 0 72.12 70a.217.217 0 0 0-.295.086.213.213 0 0 0 .086.292.212.212 0 0 0 .291-.087h.003Zm5.81.072a.216.216 0 0 0-.21-.376.216.216 0 0 0 .21.376Zm-6.758-.589a.218.218 0 0 0-.086-.293.218.218 0 0 0-.294.086.216.216 0 0 0 .19.32.221.221 0 0 0 .19-.113Zm7.7.06a.215.215 0 1 0-.209-.376.215.215 0 1 0 .209.376Zm-8.65-.579a.216.216 0 0 0-.38-.207.217.217 0 0 0 .19.32c.076 0 .153-.04.19-.113Zm9.595.053a.215.215 0 1 0-.21-.376.218.218 0 0 0-.085.293.22.22 0 0 0 .19.111.21.21 0 0 0 .105-.028Zm-10.542-.568a.217.217 0 1 0-.192.113.22.22 0 0 0 .19-.113h.002Zm11.486.041a.216.216 0 1 0-.21-.376.216.216 0 0 0 .21.376Zm-12.436-.56a.213.213 0 0 0-.086-.291.214.214 0 0 0-.292.084.215.215 0 1 0 .378.207Zm13.378.034a.219.219 0 0 0 .085-.297.216.216 0 1 0-.085.295v.002Zm-14.327-.551a.215.215 0 1 0-.378-.207.216.216 0 1 0 .378.207Zm15.273.02a.213.213 0 0 0 .083-.29.215.215 0 1 0-.376.208.214.214 0 0 0 .293.083Zm-16.22-.54a.214.214 0 0 0-.085-.292.215.215 0 0 0-.294.084.214.214 0 0 0 .087.294.212.212 0 0 0 .291-.087Zm17.164.014a.22.22 0 0 0 .085-.297.218.218 0 0 0-.38.21c.04.072.113.112.188.112.037 0 .073-.01.105-.027l.002.002Zm-18.11-.532a.218.218 0 0 0-.087-.293.218.218 0 0 0-.293.086.219.219 0 0 0 .086.294c.032.016.07.026.103.026a.221.221 0 0 0 .19-.113Zm19.056.004a.217.217 0 0 0-.21-.378.216.216 0 0 0-.083.293c.039.072.112.113.188.113a.245.245 0 0 0 .105-.028Zm-20.006-.523a.219.219 0 0 0-.087-.293.219.219 0 0 0-.293.086.217.217 0 0 0 .19.32c.075 0 .15-.04.19-.113Zm20.965-.2a.22.22 0 0 0-.12-.281.217.217 0 0 0-.283.12.22.22 0 0 0 .12.282.218.218 0 0 0 .282-.12Zm-21.915-.317a.216.216 0 0 0-.086-.293.22.22 0 0 0-.295.086.219.219 0 0 0 .086.293.217.217 0 0 0 .293-.087h.002Zm21.405-.476a.216.216 0 0 0-.38-.206.216.216 0 1 0 .38.206Zm-22.354-.043a.213.213 0 0 0-.087-.291.214.214 0 0 0-.291.084.214.214 0 0 0 .086.294.215.215 0 0 0 .291-.087Zm21.405-.474a.217.217 0 0 0-.087-.293.215.215 0 1 0-.207.378c.032.019.07.028.104.028a.217.217 0 0 0 .19-.113Zm-22.355-.043a.215.215 0 0 0-.086-.293.213.213 0 0 0-.292.086.213.213 0 0 0 .087.292.202.202 0 0 0 .101.028c.077 0 .15-.041.19-.113Zm21.405-.476a.217.217 0 0 0-.086-.293.219.219 0 0 0-.294.086.218.218 0 0 0 .19.32c.077 0 .15-.041.19-.113Zm-22.352-.043a.219.219 0 0 0-.087-.293.216.216 0 1 0 .087.293Zm21.403-.474a.214.214 0 0 0-.087-.293.214.214 0 0 0-.291.086.213.213 0 0 0 .086.292.202.202 0 0 0 .102.028c.077 0 .15-.041.19-.113Zm-22.351-.043a.218.218 0 0 0-.087-.293.217.217 0 0 0-.293.086.219.219 0 0 0 .087.294.217.217 0 0 0 .293-.087Zm21.403-.476a.215.215 0 1 0-.378-.207.215.215 0 0 0 .378.207Zm-22.353-.043a.219.219 0 0 0-.086-.293.219.219 0 0 0-.293.086.218.218 0 0 0 .086.294.219.219 0 0 0 .293-.087Zm21.405-.474a.217.217 0 0 0-.086-.293.215.215 0 1 0-.207.378.204.204 0 0 0 .103.028.221.221 0 0 0 .19-.113Zm-22.354-.043a.214.214 0 0 0-.087-.293.216.216 0 0 0-.293.086.219.219 0 0 0 .087.294.217.217 0 0 0 .293-.087Zm21.405-.476a.219.219 0 0 0-.087-.293.218.218 0 0 0-.293.086.218.218 0 0 0 .087.294.22.22 0 0 0 .293-.086Zm-22.355-.043a.216.216 0 1 0-.378-.207.216.216 0 0 0 .378.207Zm21.405-.474a.217.217 0 0 0-.086-.293.216.216 0 1 0-.207.378.21.21 0 0 0 .103.028.22.22 0 0 0 .19-.113Zm-22.354-.043a.215.215 0 0 0-.085-.293.214.214 0 0 0-.293.086.213.213 0 0 0 .086.291.204.204 0 0 0 .104.029.216.216 0 0 0 .188-.113Zm21.405-.476a.217.217 0 0 0-.087-.293.219.219 0 0 0-.293.086.218.218 0 0 0 .086.294c.034.017.07.026.104.026a.212.212 0 0 0 .19-.113Zm-22.353-.043a.218.218 0 0 0-.086-.293.217.217 0 0 0-.294.086.217.217 0 0 0 .19.32.221.221 0 0 0 .19-.113Zm21.403-.474a.214.214 0 0 0-.086-.293.213.213 0 0 0-.292.086.213.213 0 0 0 .087.292.202.202 0 0 0 .101.028c.077 0 .15-.041.19-.113Zm-22.35-.043a.217.217 0 0 0-.087-.293.215.215 0 1 0-.207.378c.032.018.07.028.104.028a.217.217 0 0 0 .19-.113Zm21.403-.476a.217.217 0 0 0-.085-.293.218.218 0 0 0-.293.086.215.215 0 1 0 .378.207Zm-22.353-.043a.217.217 0 0 0-.087-.293.219.219 0 0 0-.293.086.218.218 0 0 0 .087.293c.032.017.07.027.103.027.075 0 .15-.042.19-.113Zm21.405-.476a.216.216 0 0 0-.38-.205.214.214 0 0 0 .087.292c.032.018.07.028.103.028a.22.22 0 0 0 .19-.115Zm-22.355-.043a.213.213 0 0 0-.086-.291.213.213 0 0 0-.291.086.214.214 0 0 0 .084.291c.034.02.07.029.104.029.077 0 .15-.042.19-.115Zm21.405-.474a.218.218 0 0 0-.086-.293.22.22 0 0 0-.295.086.218.218 0 0 0 .086.294.22.22 0 0 0 .293-.087h.002Zm-22.354-.043a.216.216 0 0 0-.085-.293.218.218 0 0 0-.293.086.216.216 0 1 0 .378.207Zm21.405-.476a.216.216 0 1 0-.19.113c.075 0 .152-.04.19-.113Zm-22.355-.043a.214.214 0 0 0-.084-.291.214.214 0 0 0-.294.086.213.213 0 0 0 .087.291.212.212 0 0 0 .291-.087Zm21.405-.474a.215.215 0 1 0-.378-.207.216.216 0 0 0 .188.32.215.215 0 0 0 .19-.113ZM49.9 57.537a.215.215 0 1 0-.4-.161.217.217 0 0 0 .116.282.22.22 0 0 0 .083.015.214.214 0 0 0 .201-.134v-.002Zm20.94-.154a.214.214 0 0 0-.084-.291.215.215 0 0 0-.293.084.214.214 0 0 0 .086.294.213.213 0 0 0 .291-.087Zm-20.167-.351a.216.216 0 1 0-.209-.376.215.215 0 1 0 .209.376Zm19.218-.164a.216.216 0 0 0-.085-.293.216.216 0 1 0-.103.406.216.216 0 0 0 .188-.113Zm-18.274-.361a.216.216 0 0 0 .083-.293.215.215 0 1 0-.377.208c.04.072.113.111.188.111.034 0 .072-.01.106-.026Zm17.326-.158a.216.216 0 0 0-.38-.207.216.216 0 1 0 .38.207Zm-16.382-.37a.218.218 0 0 0 .084-.294.215.215 0 0 0-.293-.084.215.215 0 0 0 .103.404c.038 0 .074-.01.106-.026Zm15.435-.147a.217.217 0 1 0-.192.113.22.22 0 0 0 .19-.113h.002Zm-14.491-.38a.215.215 0 0 0 .084-.293.217.217 0 0 0-.293-.085.217.217 0 0 0-.085.294.22.22 0 0 0 .294.084Zm13.543-.139a.216.216 0 1 0-.378-.207.215.215 0 0 0 .188.32.21.21 0 0 0 .19-.113Zm-12.598-.39a.216.216 0 0 0 .083-.293.214.214 0 0 0-.293-.084.216.216 0 0 0-.083.293c.04.072.113.113.188.113a.232.232 0 0 0 .105-.028Zm11.649-.127a.215.215 0 1 0-.378-.207.216.216 0 0 0 .188.32c.077 0 .15-.042.19-.113Zm-10.707-.4a.215.215 0 0 0 .085-.294.217.217 0 1 0-.19.322.231.231 0 0 0 .104-.029h.001Zm9.757-.119a.214.214 0 0 0-.085-.291.215.215 0 0 0-.293.084.214.214 0 0 0 .087.294.216.216 0 0 0 .291-.087Zm-8.81-.408a.217.217 0 0 0-.21-.378.216.216 0 0 0-.084.293c.04.072.113.113.188.113a.21.21 0 0 0 .105-.028Zm7.864-.11a.217.217 0 0 0-.086-.292.215.215 0 0 0-.294.086.217.217 0 0 0 .19.32.221.221 0 0 0 .19-.113Zm-6.921-.418a.216.216 0 1 0-.293-.081c.04.07.113.11.188.11a.21.21 0 0 0 .105-.027v-.002Zm5.972-.1a.216.216 0 0 0-.38-.207.217.217 0 0 0 .19.32.22.22 0 0 0 .19-.113Zm-5.03-.429a.215.215 0 0 0 .085-.293.218.218 0 0 0-.294-.085.22.22 0 0 0-.084.297c.041.07.114.111.19.111.033 0 .071-.009.103-.028v-.002Zm4.08-.088a.216.216 0 1 0-.378-.207.216.216 0 0 0 .378.207Zm-.946-.528a.218.218 0 0 0-.105-.286.22.22 0 0 0-.288.105.217.217 0 0 0 .106.286.2.2 0 0 0 .09.022c.083 0 .16-.047.197-.127Zm-2.203.103c.109-.049.158-.177.109-.286a.219.219 0 0 0-.288-.107.217.217 0 0 0 .18.395l-.001-.002Zm1.175-.423a.217.217 0 0 0-.216-.216.216.216 0 1 0 .216.216ZM61.046 65.586c.118.345.051.659-.154.73-.207.07-.452-.137-.57-.482-.119-.345-.052-.66.154-.73.206-.07.451.137.57.482Z" fill="#000"/><path d="M60.811 66.38c-.208 0-.425-.208-.536-.529a.957.957 0 0 1-.045-.495c.032-.152.115-.259.232-.3.117-.04.247-.006.367.094a.962.962 0 0 1 .267.42c.06.175.076.352.045.495-.032.152-.114.259-.232.299a.303.303 0 0 1-.098.016Zm-.25-1.238a.194.194 0 0 0-.066.01c-.082.029-.142.109-.166.225a.86.86 0 0 0 .043.441c.108.313.33.51.505.45.082-.028.14-.108.165-.225a.843.843 0 0 0-.043-.44.854.854 0 0 0-.236-.375.321.321 0 0 0-.203-.086h.001Z" fill="#000"/><path d="M60.808 65.64a.54.54 0 0 1-.235.726l-1.936.99a.54.54 0 1 1-.49-.96l1.935-.99a.539.539 0 0 1 .726.236v-.001Z" fill="#FFBF17"/><path d="M58.39 67.482a.609.609 0 0 1-.579-.793.609.609 0 0 1 .301-.353l1.937-.99a.603.603 0 0 1 .816.264.603.603 0 0 1-.264.817l-1.936.99a.606.606 0 0 1-.275.065Zm1.935-2.067a.47.47 0 0 0-.213.051l-1.937.99a.473.473 0 0 0 .43.84l1.936-.99a.473.473 0 0 0-.216-.891Z" fill="#111"/><path d="M54.072 79.242c-.287 0-.576-.07-.84-.211l-11.765-6.264a3.678 3.678 0 0 0-3.342-.052l-5.506 2.715a1.773 1.773 0 0 1-1.731-.085 1.776 1.776 0 0 1-.842-1.517V63.554c0-.472-.257-.91-.667-1.14l-2.625-1.476a1.79 1.79 0 0 1-.912-1.556v-7.118c0-.953-.517-1.835-1.351-2.299l-1.791-.997a.239.239 0 0 1-.094-.324.236.236 0 0 1 .324-.092l1.792.998a3.108 3.108 0 0 1 1.596 2.716v7.118c0 .472.257.91.667 1.14L29.61 62c.561.317.912.912.912 1.557V73.83c0 .456.23.87.617 1.11.386.241.861.263 1.27.064l5.505-2.715a4.152 4.152 0 0 1 3.777.06l11.765 6.264c.41.217.89.205 1.288-.034s.635-.657.635-1.12v-7.435c0-1.178.653-2.24 1.704-2.772l.697-.355a.239.239 0 0 1 .215.426l-.697.355a2.616 2.616 0 0 0-1.441 2.346v7.434c0 .633-.325 1.204-.866 1.53a1.779 1.779 0 0 1-.92.258v-.004Z" fill="#fff"/><path d="M55.637 75.177a.478.478 0 0 1-.478-.477v-4.681c0-1.268.703-2.413 1.833-2.986l.697-.354a.478.478 0 1 1 .432.852l-.697.354a2.382 2.382 0 0 0-1.31 2.133V74.7a.478.478 0 0 1-.477.477ZM26.086 57.352a.478.478 0 0 1-.477-.478v-4.612c0-.867-.47-1.668-1.228-2.09l-1.792-.995a.48.48 0 0 1 .466-.836l1.791.998a3.351 3.351 0 0 1 1.72 2.925v4.612a.477.477 0 0 1-.478.478l-.002-.002Z" fill="#FF72FF"/><path d="M25.39 15.157c.024 4.03-2.984 9.05-6.732 11.201a8.188 8.188 0 0 1-1.736.732l8.467-11.933Zm0 0c0-.324-.026-.648-.084-.964l.083.964Zm-8.496 11.836a8.08 8.08 0 0 0 1.715-.722c1.855-1.066 3.533-2.845 4.743-4.86 1.21-2.018 1.949-4.262 1.936-6.253v-.001c0-.319-.024-.637-.08-.946l-.008-.039.021-.033.776-1.226-2.181-1.335-.01-.006a3.282 3.282 0 0 0-.603-.37c-1.19-.539-2.808-.377-4.62.66-1.851 1.066-3.528 2.843-4.74 4.857-1.212 2.014-1.951 4.256-1.94 6.247.042 1.832.69 3.114 1.747 3.763l2.41 1.463.778-1.159.02-.03.036-.01ZM12.277 47.496l5.67-5.309-1.004-.344-.21-.072.192-.11 10.827-6.22a8.828 8.828 0 0 0-.822-3.697l-.017-.037.014-.04.288-.812-2.331-1.444-.288-.173c-1.568-.811-3.59-.817-5.833.49-2.472 1.429-4.746 4.14-6.392 7.173-1.635 3.014-2.643 6.33-2.616 9.004l2.522 1.59Z" fill="#0323BA" stroke="#000" stroke-width=".201"/><path d="M21.21 13.457c-1.856 1.083-3.536 2.862-4.748 4.874-1.213 2.012-1.953 4.248-1.94 6.24.012 1.99.775 3.335 1.972 3.928 1.2.595 2.87.45 4.732-.616 1.86-1.066 3.54-2.845 4.75-4.861 1.21-2.016 1.947-4.26 1.93-6.252-.016-1.99-.78-3.334-1.974-3.925-1.198-.594-2.865-.45-4.722.612ZM21.384 31.347c-2.496 1.43-4.77 4.142-6.411 7.178-1.607 2.971-2.6 6.238-2.606 8.89l18.014-10.313c-.035-2.667-1.053-4.807-2.661-5.932-1.616-1.13-3.85-1.253-6.336.177Z" fill="#4E6CFA" stroke="#000" stroke-width=".201"/><path d="M63.956 33.862c-.025 4.03 2.983 9.05 6.73 11.201.55.308 1.131.557 1.738.732l-8.468-11.933Zm0 0c0-.324.025-.648.083-.964l-.083.964Zm8.495 11.836a8.08 8.08 0 0 1-1.714-.722c-1.856-1.066-3.534-2.845-4.744-4.86-1.21-2.017-1.949-4.261-1.936-6.253 0-.32.024-.638.081-.947l.007-.038-.02-.034-.777-1.226 2.181-1.334.01-.007a3.28 3.28 0 0 1 .604-.37c1.19-.538 2.807-.377 4.618.66 1.852 1.066 3.53 2.843 4.741 4.857 1.212 2.014 1.952 4.256 1.94 6.248-.042 1.83-.69 3.113-1.747 3.763l-2.41 1.462-.778-1.158-.02-.03-.036-.011ZM77.069 66.201l-5.672-5.308 1.005-.345.21-.072-.192-.11-10.827-6.22a8.83 8.83 0 0 1 .822-3.697l.017-.037-.014-.04-.288-.812 2.332-1.444.287-.173c1.568-.81 3.591-.816 5.834.49 2.471 1.429 4.745 4.14 6.391 7.173 1.636 3.014 2.644 6.331 2.617 9.004L77.069 66.2Z" fill="#02187C" stroke="#000" stroke-width=".201"/><path d="M68.135 32.163c1.856 1.082 3.536 2.862 4.748 4.873 1.213 2.013 1.953 4.249 1.94 6.24-.011 1.99-.775 3.335-1.972 3.928-1.2.595-2.87.45-4.732-.616-1.86-1.066-3.54-2.845-4.75-4.86-1.21-2.017-1.946-4.261-1.93-6.253.016-1.99.78-3.334 1.975-3.925 1.198-.594 2.864-.45 4.721.613ZM67.962 50.053c2.496 1.429 4.77 4.141 6.41 7.177 1.607 2.971 2.6 6.238 2.606 8.89L58.964 55.808c.035-2.667 1.053-4.806 2.662-5.932 1.615-1.13 3.849-1.253 6.336.178Z" fill="#4E6CFA" stroke="#000" stroke-width=".201"/><path d="M72.985 61.822v.1h.005c-.026 1.8-.751 2.975-1.84 3.413h-.002l-.018.007a2.538 2.538 0 0 1-.537.143l-.01.002-1.054.276-.12-.27-.02-.045-.05-.011a5.495 5.495 0 0 1-1.543-.623c-1.452-.836-2.777-2.287-3.74-3.953-.961-1.667-1.555-3.54-1.555-5.217 0-1.347.392-2.355 1.025-2.976l.051-.05-.03-.065-.104-.224 1.223-.3c.843-.21 1.884-.039 3.023.623 1.453.836 2.778 2.287 3.74 3.954.962 1.666 1.556 3.54 1.556 5.216Z" fill="#FEC55E" stroke="#000" stroke-width=".201"/><path d="m62.733 54.035 3.41-2.004c.201.043.414.105.629.185L62.58 54.68c.04-.228.091-.442.153-.645ZM63.613 55.019l4.06-2.382.019.01c.149.084.29.179.437.278L63.62 55.57l-.008-.551ZM69.221 53.8l-4.404 2.583-.009-.546 4.036-2.368c.127.106.254.216.377.33ZM67.215 58.003l-.01-.551 3.455-2.03c.095.128.187.26.276.393l-3.722 2.188ZM69.402 65.505l-.02-.045-.048-.011a5.396 5.396 0 0 1-.324-.09l3.826-2.215a4.153 4.153 0 0 1-.221.687l-3.147 1.821-.066-.147ZM63.439 52.328l.959-.235-.84.493-.015-.033-.104-.224ZM72.477 58.91c.05.154.098.31.143.468l-3.212 1.902-.009-.55 3.078-1.82ZM69.23 62.28l3.585-2.095c.033.168.062.337.086.504l-3.662 2.139-.008-.548ZM66.012 57.19l-.009-.551 3.817-2.24c.112.12.218.242.324.368l-4.132 2.423ZM69.59 59.07l2.385-1.401c.066.145.13.293.193.441l-2.57 1.508-.009-.548ZM72.977 62.153l-4.244 2.475-.008-.551 4.253-2.483c.004.076.009.148.009.228 0 .114-.005.224-.01.331ZM68.394 58.259l2.974-1.745c.082.136.16.275.236.415l-3.201 1.881-.009-.551Z" fill="#FEDC9E" stroke="#000" stroke-width=".201"/><path d="M61.221 55.966c0-1.676.593-2.83 1.52-3.364.926-.535 2.222-.47 3.675.366 1.45.84 2.774 2.29 3.737 3.956.963 1.666 1.558 3.538 1.558 5.214 0 1.677-.592 2.83-1.519 3.365-.926.534-2.223.47-3.675-.367-1.453-.836-2.778-2.287-3.74-3.953-.962-1.667-1.556-3.54-1.556-5.217Z" fill="#FED17E" stroke="#000" stroke-width=".201"/><path d="M61.84 56.333c0-1.477.522-2.491 1.336-2.96.813-.47 1.953-.415 3.232.322 1.278.737 2.446 2.015 3.295 3.485.85 1.47 1.373 3.121 1.373 4.599 0 1.477-.522 2.491-1.336 2.96-.813.47-1.953.415-3.232-.322-1.278-.737-2.447-2.016-3.295-3.485-.85-1.47-1.373-3.121-1.373-4.599Z" fill="#FEC55E" stroke="#000" stroke-width=".201"/><path d="M62.213 56.544c0-1.36.48-2.293 1.227-2.725.746-.432 1.794-.384 2.974.298 1.18.681 2.256 1.86 3.038 3.215.782 1.355 1.264 2.876 1.264 4.235 0 1.36-.48 2.293-1.227 2.726-.747.432-1.795.383-2.974-.299-1.18-.68-2.256-1.86-3.038-3.215-.782-1.354-1.264-2.875-1.264-4.235Z" fill="#FEC55E" stroke="#000" stroke-width=".201"/></svg>