<svg width="90" height="90" fill="none" xmlns="http://www.w3.org/2000/svg"><g clip-path="url(#a)"><path d="m14.854 52.595-.278-.825a1.015 1.015 0 0 1 .632-1.28l13.342-4.52a1.014 1.014 0 0 1 1.279.632c.177.527.748.81 1.279.633l5.627-1.903c.526-.177.809-.75.632-1.28l-.526-1.555a2.795 2.795 0 0 1 1.75-3.538l12.471-4.221a5.428 5.428 0 0 1 6.886 3.411 5.442 5.442 0 0 1-3.407 6.894L4.92 61.838a2.13 2.13 0 0 1-1.416-4.019l10.749-3.953a1.01 1.01 0 0 0 .606-1.27h-.005Z" fill="#044742"/><path d="M39.695 46.34a.217.217 0 0 1-.207-.147l-1.37-4.05a1.115 1.115 0 0 1 .697-1.412l4.611-1.559c.111-.04.238.02.278.137a.216.216 0 0 1-.136.278l-4.611 1.56a.678.678 0 0 0-.425.855l1.37 4.049a.223.223 0 0 1-.136.278c-.026.01-.046.01-.071.01ZM39.91 49.489a.219.219 0 0 1-.07-.425l7.365-2.496a.609.609 0 0 0 .349-.304.608.608 0 0 0 .03-.46 1.033 1.033 0 0 1 .05-.795c.127-.248.334-.435.602-.526l2.958-1.003a.22.22 0 0 1 .278.137.217.217 0 0 1-.137.278l-2.957 1.003a.61.61 0 0 0-.38.769c.092.263.071.547-.05.795a1.048 1.048 0 0 1-.602.526l-7.366 2.495s-.045.01-.07.01v-.004Z" fill="#81FFA1"/><path d="M51.74 44.228a.742.742 0 0 1-.233-1.447.713.713 0 0 1 .566.04.746.746 0 0 1-.329 1.412l-.005-.005Zm0-1.053a.3.3 0 0 0-.278.172.31.31 0 0 0-.016.233.305.305 0 0 0 .39.193.305.305 0 0 0 .191-.39.3.3 0 0 0-.156-.177.333.333 0 0 0-.137-.03h.005ZM44.033 39.936a.742.742 0 0 1-.703-.506.737.737 0 0 1 .466-.941c.187-.061.389-.051.566.04a.718.718 0 0 1 .374.43.741.741 0 0 1-.703.982v-.005Zm0-1.053a.3.3 0 0 0-.278.172.31.31 0 0 0-.015.233.305.305 0 0 0 .39.193.305.305 0 0 0 .191-.39.3.3 0 0 0-.156-.177.315.315 0 0 0-.137-.03h.005ZM44.904 45.802a.742.742 0 0 1-.703-.506.74.74 0 0 1 1.032-.9.718.718 0 0 1 .374.43c.065.187.05.39-.04.566a.73.73 0 0 1-.43.375.781.781 0 0 1-.238.04l.005-.005Zm0-1.052a.305.305 0 0 0-.293.405.305.305 0 0 0 .566.035.311.311 0 0 0 .015-.233.3.3 0 0 0-.157-.177.333.333 0 0 0-.136-.03h.005ZM48.937 41.956a.753.753 0 0 1-.707-.506.745.745 0 0 1 .465-.941.713.713 0 0 1 .566.04.734.734 0 0 1 .374.43.736.736 0 0 1-.465.942.755.755 0 0 1-.238.04l.005-.005Zm0-1.053a.305.305 0 0 0-.288.405.305.305 0 0 0 .566.036.311.311 0 0 0 .016-.233.3.3 0 0 0-.157-.177.316.316 0 0 0-.137-.03Z" fill="#81FFA1"/><path d="M42.687 43.61c-.192 0-.38-.045-.556-.131a1.241 1.241 0 0 1-.632-.724.82.82 0 0 0-.41-.47.806.806 0 0 0-.621-.041l-1.83.617a.22.22 0 0 1-.279-.136.217.217 0 0 1 .137-.279l1.83-.617a1.23 1.23 0 0 1 .956.066c.298.146.525.404.632.723.07.208.217.375.409.471a.805.805 0 0 0 .622.04l5.374-1.822a.22.22 0 0 1 .278.137.217.217 0 0 1-.136.278l-5.375 1.823a1.222 1.222 0 0 1-.399.065ZM40.156 46.967a.217.217 0 0 1-.208-.147.217.217 0 0 1 .137-.279l4.242-1.437a.225.225 0 0 1 .278.137.219.219 0 0 1-.137.278l-4.242 1.438s-.045.01-.07.01Z" fill="#81FFA1"/><path d="M43.283 37.33s5.713.415 8.474 8.59l4.6-1.56-4.555-9.951-8.519 2.915v.005Z" fill="#32303C" style="mix-blend-mode:multiply" opacity=".4"/><path d="M48.275 67.801c5.749-6.681 7.67-17.361 4.151-27.783-3.519-10.428-11.522-17.752-20.141-19.564l-.562-1.655c.38-.157.764-.309 1.158-.44C44.327 14.48 57.446 22.7 62.183 36.716c4.732 14.016-.712 28.518-12.158 32.395-.395.132-.789.249-1.188.355l-.562-1.66V67.8Z" fill="#7684FF"/><path d="M49.853 34.262a31.557 31.557 0 0 0-4.166-5.796l9.652-3.27a30.216 30.216 0 0 1 4.257 5.766l-9.743 3.3ZM53.473 43.864a34.1 34.1 0 0 0-.965-3.594l9.757-3.305c.395 1.2.708 2.4.956 3.594l-9.748 3.3v.005ZM63.61 42.861c.082.618.148 1.236.193 1.848l-9.717 3.29a33.118 33.118 0 0 0-.207-1.842l9.732-3.295ZM42.79 25.697c-.44-.364-.88-.718-1.335-1.048l9.51-3.219c.47.324.93.673 1.39 1.033l-9.56 3.24-.006-.006Z" fill="#fff"/><path d="m32.285 20.454-.562-1.655.233-.092c9.373 1.96 18.003 9.754 21.76 20.875 3.756 11.12 1.622 22.56-4.642 29.814-.08.02-.157.045-.237.065l-.562-1.66c5.749-6.681 7.67-17.362 4.151-27.784-3.519-10.427-11.522-17.751-20.141-19.563Z" fill="#1F00FF"/><path d="M48.83 69.75a.287.287 0 0 1-.273-.198l-.56-1.66a.291.291 0 0 1 .055-.284c5.84-6.782 7.447-17.579 4.095-27.5-3.352-9.926-11.173-17.529-19.924-19.371a.299.299 0 0 1-.218-.193l-.56-1.655a.283.283 0 0 1 .161-.36l.233-.095a.27.27 0 0 1 .166-.016c9.864 2.06 18.287 10.134 21.977 21.067 3.69 10.934 1.891 22.464-4.697 30.097a.286.286 0 0 1-.141.092l-.243.065s-.05.01-.076.01h.005Zm-.232-1.888.394 1.169c6.335-7.482 8.039-18.708 4.44-29.363-3.6-10.66-11.76-18.547-21.33-20.637l.394 1.17c8.883 1.943 16.795 9.662 20.192 19.72 3.397 10.052 1.784 21-4.095 27.94h.005Z" fill="#111"/><path d="M48.83 69.75a.287.287 0 0 1-.273-.197l-.56-1.66a.292.292 0 0 1 .055-.284c5.84-6.782 7.447-17.58 4.095-27.5-3.352-9.926-11.173-17.529-19.924-19.371a.298.298 0 0 1-.218-.193l-.56-1.655a.283.283 0 0 1 .161-.36c.44-.181.814-.323 1.178-.45 5.622-1.903 11.805-1.017 17.417 2.5 5.591 3.504 9.944 9.203 12.254 16.041 4.778 14.148-.758 28.842-12.34 32.765-.36.121-.744.238-1.209.36-.025.004-.05.01-.075.01v-.006Zm-.232-1.888.42 1.246c.333-.092.626-.183.904-.274C61.203 65.018 66.572 50.647 61.9 36.81c-2.27-6.717-6.532-12.305-12.012-15.737-5.46-3.422-11.466-4.288-16.921-2.44-.278.096-.566.202-.885.329l.42 1.24c8.883 1.944 16.795 9.663 20.192 19.72 3.397 10.053 1.785 21.002-4.095 27.941Z" fill="#111"/><path d="M57.856 32.385s.03-.005.045-.01l2.467-.84a5.45 5.45 0 0 1 6.911 3.421 5.46 5.46 0 0 1-3.417 6.92l-2.467.835-.046.015c-2.072.704-4.535-1.043-5.5-3.903-.966-2.854-.066-5.74 2.007-6.443v.005Z" fill="#FF72FF"/><path d="M64.002 36.059c.253.744.935 1.184 1.522.982.591-.203.864-.962.611-1.706-.252-.744-.93-1.185-1.521-.982-.592.202-.865.962-.617 1.706h.005Z" fill="#FFACD5"/><path d="M20.496 56.058a.217.217 0 0 1-.207-.147.217.217 0 0 1 .137-.278l7.568-2.562a.608.608 0 0 0 .349-.303.607.607 0 0 0 .03-.46 1.041 1.041 0 0 1 .652-1.322l2.958-1.002a.225.225 0 0 1 .278.136.219.219 0 0 1-.137.279L29.167 51.4a.605.605 0 0 0-.38.77 1.048 1.048 0 0 1-.652 1.32l-7.568 2.562s-.045.01-.07.01v-.005Z" fill="#81FFA1"/><path d="M32.55 50.784a.732.732 0 0 1-.703-.506.741.741 0 1 1 .936.466.755.755 0 0 1-.238.04h.005Zm0-1.053a.305.305 0 0 0-.288.405.31.31 0 0 0 .39.192.31.31 0 0 0 .192-.39.31.31 0 0 0-.294-.207ZM27.418 48.89a.76.76 0 0 1-.328-.075.717.717 0 0 1-.375-.43.715.715 0 0 1 .04-.567.717.717 0 0 1 .43-.375.713.713 0 0 1 .567.04.717.717 0 0 1 .374.431.741.741 0 0 1-.703.982l-.005-.005Zm0-1.052a.35.35 0 0 0-.1.015.287.287 0 0 0-.178.157.323.323 0 0 0-.015.238.31.31 0 0 0 .39.192.305.305 0 0 0 .191-.39.3.3 0 0 0-.156-.176.317.317 0 0 0-.137-.03l.005-.006ZM32.05 48.642a.761.761 0 0 1-.33-.076.747.747 0 0 1-.373-.43.737.737 0 0 1 .04-.567.73.73 0 0 1 .43-.375.713.713 0 0 1 .566.041.745.745 0 0 1-.329 1.412l-.004-.005Zm0-1.053a.351.351 0 0 0-.102.016.312.312 0 0 0-.04.567.306.306 0 1 0 .268-.552.3.3 0 0 0-.137-.03h.01ZM24.844 53.765a.732.732 0 0 1-.703-.506.741.741 0 0 1 .465-.941.738.738 0 0 1 .9 1.032.718.718 0 0 1-.43.375.755.755 0 0 1-.237.04h.005Zm0-1.053a.305.305 0 0 0-.288.405c.025.076.08.142.151.177a.31.31 0 0 0 .233.016.31.31 0 0 0 .192-.39.31.31 0 0 0-.293-.208h.005ZM18.861 51.771a.732.732 0 0 1-.703-.506.715.715 0 0 1 .04-.567.717.717 0 0 1 .43-.375.74.74 0 0 1 .94.466.74.74 0 0 1-.702.982h-.005Zm0-1.053a.3.3 0 0 0-.273.172.311.311 0 0 0-.015.233.31.31 0 0 0 .39.192.305.305 0 0 0 .191-.39.305.305 0 0 0-.293-.207ZM36.221 50.799a.731.731 0 0 1-.703-.506.736.736 0 0 1 .466-.942.738.738 0 0 1 .94.466.74.74 0 0 1-.703.982Zm0-1.053a.3.3 0 0 0-.278.172.311.311 0 0 0-.015.233.31.31 0 0 0 .39.192.306.306 0 0 0 .192-.39.31.31 0 0 0-.293-.207h.005ZM36.953 48.208a.742.742 0 0 1-.703-.506.736.736 0 0 1 .465-.942.713.713 0 0 1 .566.04.731.731 0 0 1 .374.431.741.741 0 0 1-.702.982v-.005Zm0-1.053c-.036 0-.066 0-.101.015a.31.31 0 0 0-.192.39.305.305 0 0 0 .389.192.306.306 0 0 0 .035-.567.333.333 0 0 0-.136-.03h.005Z" fill="#81FFA1"/><path d="M28.646 52.91a.217.217 0 0 1-.208-.147.217.217 0 0 1 .137-.278l7.067-2.395a.22.22 0 0 1 .279.137.217.217 0 0 1-.137.279L28.716 52.9s-.045.01-.07.01ZM16.207 54.665A.217.217 0 0 1 16 54.52a.217.217 0 0 1 .137-.279l20.197-6.838a.22.22 0 0 1 .278.136.217.217 0 0 1-.137.279l-20.197 6.838s-.045.01-.07.01Z" fill="#81FFA1"/><path d="M20.912 54.554c-.42 0-.813-.263-.955-.688l-.202-.597a.217.217 0 0 1 .136-.279.225.225 0 0 1 .278.137l.203.597c.1.299.43.461.727.36l3.216-1.089a.222.222 0 0 1 .278.137.219.219 0 0 1-.137.279l-3.215 1.088c-.106.035-.217.05-.323.05l-.006.005Z" fill="#81FFA1"/><path d="M21.02 53.021a.217.217 0 0 1-.207-.147l-.344-1.022a1.522 1.522 0 0 1 .95-1.929l5.435-1.842a.225.225 0 0 1 .279.137.217.217 0 0 1-.137.278l-5.435 1.842c-.566.193-.87.81-.677 1.372l.343 1.023a.219.219 0 0 1-.136.278c-.025.01-.046.01-.07.01Z" fill="#81FFA1"/><path d="M25.778 50.226a1.23 1.23 0 0 1-1.168-.84l-.081-.243a.219.219 0 1 1 .414-.142l.081.243a.799.799 0 0 0 1.011.501l5.425-1.837a.22.22 0 0 1 .278.137.217.217 0 0 1-.136.278l-5.425 1.837a1.195 1.195 0 0 1-.394.066h-.005ZM16.912 54.297a.217.217 0 0 1-.207-.147l-.278-.82a1.537 1.537 0 0 1 .076-1.17c.182-.363.495-.642.88-.768l.98-.335c.112-.04.238.02.279.137a.217.217 0 0 1-.137.278l-.98.335a1.097 1.097 0 0 0-.688 1.386l.278.82a.217.217 0 0 1-.137.279c-.025.005-.045.01-.07.01l.004-.005ZM3.298 61.955a.219.219 0 0 1-.07-.425l4.837-1.635a.61.61 0 0 0 .38-.77 1.033 1.033 0 0 1 .05-.794c.121-.248.339-.436.602-.527l2.957-1.002c.117-.04.238.02.278.137a.217.217 0 0 1-.136.278L9.238 58.22a.608.608 0 0 0-.349.304.608.608 0 0 0-.03.46 1.043 1.043 0 0 1-.652 1.322l-4.838 1.64s-.046.01-.071.01Z" fill="#81FFA1"/><path d="M12.617 57.602a.745.745 0 0 1-.328-.076.746.746 0 0 1-.334-.997.717.717 0 0 1 .43-.375.74.74 0 0 1 .94.466.746.746 0 0 1-.703.982h-.005Zm0-1.053a.3.3 0 0 0-.273.172.31.31 0 0 0-.015.233.31.31 0 0 0 .39.192.305.305 0 0 0 .192-.39.31.31 0 0 0-.294-.207ZM6.998 59.81a.742.742 0 0 1-.702-.507.741.741 0 1 1 1.405-.47c.066.187.05.389-.04.566a.732.732 0 0 1-.43.375.78.78 0 0 1-.238.04l.005-.005Zm0-1.054c-.035 0-.065 0-.1.016a.306.306 0 0 0-.036.566c.07.036.157.04.232.016a.31.31 0 0 0 .192-.39.3.3 0 0 0-.156-.177.334.334 0 0 0-.137-.03h.005ZM17.861 57.095a.742.742 0 0 1-.703-.506.746.746 0 0 1 1.032-.906.731.731 0 0 1 .374.43c.066.187.05.39-.04.567a.731.731 0 0 1-.43.374.782.782 0 0 1-.238.04h.005Zm0-1.053a.305.305 0 0 0-.293.405.305.305 0 0 0 .566.035.31.31 0 0 0 .015-.232.3.3 0 0 0-.157-.178.334.334 0 0 0-.136-.03h.005ZM14.262 55.89a.745.745 0 0 1-.329-.075.747.747 0 0 1 .091-1.372.74.74 0 0 1 .9 1.032.755.755 0 0 1-.667.415h.005Zm0-1.052a.305.305 0 0 0-.288.405.31.31 0 0 0 .39.192.311.311 0 0 0 .192-.39.31.31 0 0 0-.294-.207Z" fill="#81FFA1"/><path d="M8.733 59.723a.217.217 0 0 1-.207-.147.217.217 0 0 1 .136-.279l8.61-2.915c.116-.04.238.02.278.137a.217.217 0 0 1-.137.278l-8.61 2.916s-.045.01-.07.01ZM2.23 59.398a.217.217 0 0 1-.208-.147.217.217 0 0 1 .136-.278l11.487-3.887c.116-.041.237.02.278.136a.217.217 0 0 1-.137.279L2.3 59.388s-.046.01-.07.01Z" fill="#81FFA1"/><path d="M4.236 60.203a.993.993 0 0 1-.445-.106.992.992 0 0 1-.505-.582l-.202-.598a.217.217 0 0 1 .136-.278c.111-.04.238.02.278.137l.202.597c.05.147.152.263.289.329a.6.6 0 0 0 .44.03l2.047-.693a.22.22 0 0 1 .278.136.217.217 0 0 1-.137.279l-2.047.693a1.036 1.036 0 0 1-.324.056h-.01Z" fill="#81FFA1"/><path d="m71.717 47.898 6.866 3.402-9.474 3.21 2.608-6.612Z" fill="#044742"/><path d="M76.686 66.976 72.98 71.38l-.637-7.492 4.343 3.088Z" fill="#00FF41"/><path d="M72.981 71.668c-.03 0-.06 0-.086-.016a.294.294 0 0 1-.202-.253l-.637-7.491a.293.293 0 0 1 .46-.263l4.343 3.087a.293.293 0 0 1 .056.425l-3.707 4.404a.288.288 0 0 1-.222.102l-.005.005Zm-.293-7.183.526 6.165 3.053-3.624-3.574-2.541h-.005Z" fill="#111"/><path d="m64.067 24.503 4.313-3.811-.47 7.501-3.843-3.69Z" fill="#00FF41"/><path d="M67.905 28.486a.3.3 0 0 1-.202-.08l-3.847-3.69a.295.295 0 0 1-.091-.218c0-.081.035-.157.101-.213l4.312-3.811a.293.293 0 0 1 .319-.046c.106.05.172.162.162.278l-.465 7.502a.29.29 0 0 1-.294.273l.005.005Zm-3.417-3.973 3.165 3.037.384-6.175-3.55 3.138Z" fill="#111"/><path d="m86.983 36.879.616 7.248-7.255-6.12 6.639-1.128ZM46.588 58.229l-7.912 7.648-1.992-2.41-2.69 2.582 1.912 2.49h.02l-4.07 3.934-.955-14.522 15.687.278Z" fill="#00FF41"/><path d="M31.862 72.762a.293.293 0 0 1-.293-.273l-.956-14.517a.286.286 0 0 1 .081-.218.255.255 0 0 1 .217-.091l15.688.273c.116 0 .222.076.268.182a.29.29 0 0 1-.07.314l-7.918 7.654a.285.285 0 0 1-.217.08.264.264 0 0 1-.208-.106l-1.79-2.171-2.28 2.187 1.724 2.242a.33.33 0 0 1 .081.106.294.294 0 0 1-.055.32l-4.07 3.932a.3.3 0 0 1-.202.081v.005ZM31.22 58.25l.89 13.58 3.417-3.305-1.764-2.293a.295.295 0 0 1 .03-.39l2.695-2.58a.3.3 0 0 1 .217-.082c.081 0 .157.04.207.106l1.79 2.172 7.184-6.945-14.671-.258.005-.005Z" fill="#111"/></g><defs><clipPath id="a"><path fill="#fff" d="M0 0h90v90H0z"/></clipPath></defs></svg>